<?xml version="1.0" encoding="UTF-8" standalone="no"?>
<!-- Created with Inkscape (http://www.inkscape.org/) -->

<svg
   xmlns:dc="http://purl.org/dc/elements/1.1/"
   xmlns:cc="http://creativecommons.org/ns#"
   xmlns:rdf="http://www.w3.org/1999/02/22-rdf-syntax-ns#"
   xmlns:svg="http://www.w3.org/2000/svg"
   xmlns="http://www.w3.org/2000/svg"
   xmlns:sodipodi="http://sodipodi.sourceforge.net/DTD/sodipodi-0.dtd"
   xmlns:inkscape="http://www.inkscape.org/namespaces/inkscape"
   id="svg2"
   version="1.1"
   inkscape:version="0.91 r13725"
   xml:space="preserve"
   width="2125.9841"
   height="1062.9921"
   viewBox="0 0 2125.9841 1062.9921"
   sodipodi:docname="pinezero clear.svg"><metadata
     id="metadata8"><rdf:RDF><cc:Work
         rdf:about=""><dc:format>image/svg+xml</dc:format><dc:type
           rdf:resource="http://purl.org/dc/dcmitype/StillImage" /><dc:title /></cc:Work></rdf:RDF></metadata><defs
     id="defs6"><clipPath
       clipPathUnits="userSpaceOnUse"
       id="clipPath18"><path
         d="m 459,279.39368 284,0 0,285 -284,0 0,-285 z"
         id="path20"
         inkscape:connector-curvature="0" /></clipPath><mask
       maskUnits="userSpaceOnUse"
       x="0"
       y="0"
       width="1"
       height="1"
       id="mask22"><g
         id="g24"><g
           clip-path="url(#clipPath18)"
           id="g26"><path
             d="m 459,279.39368 284,0 0,285 -284,0 0,-285 z"
             style="fill:#000000;fill-opacity:0.97000002;fill-rule:nonzero;stroke:none"
             id="path28"
             inkscape:connector-curvature="0" /></g></g></mask><clipPath
       clipPathUnits="userSpaceOnUse"
       id="clipPath34"><path
         d="m 459,279.39368 284,0 0,285 -284,0 0,-285 z"
         id="path36"
         inkscape:connector-curvature="0" /></clipPath><clipPath
       clipPathUnits="userSpaceOnUse"
       id="clipPath38"><path
         d="m 459,280 284,0 0,285 -284,0 0,-285 z"
         id="path40"
         inkscape:connector-curvature="0" /></clipPath><clipPath
       clipPathUnits="userSpaceOnUse"
       id="clipPath62"><path
         d="m 764,262.39368 285,0 0,285 -285,0 0,-285 z"
         id="path64"
         inkscape:connector-curvature="0" /></clipPath><mask
       maskUnits="userSpaceOnUse"
       x="0"
       y="0"
       width="1"
       height="1"
       id="mask66"><g
         id="g68"><g
           clip-path="url(#clipPath62)"
           id="g70"><path
             d="m 764,262.39368 285,0 0,285 -285,0 0,-285 z"
             style="fill:#000000;fill-opacity:0.97000002;fill-rule:nonzero;stroke:none"
             id="path72"
             inkscape:connector-curvature="0" /></g></g></mask><clipPath
       clipPathUnits="userSpaceOnUse"
       id="clipPath78"><path
         d="m 764,262.39368 285,0 0,285 -285,0 0,-285 z"
         id="path80"
         inkscape:connector-curvature="0" /></clipPath><clipPath
       clipPathUnits="userSpaceOnUse"
       id="clipPath82"><path
         d="m 764,263 285,0 0,285 -285,0 0,-285 z"
         id="path84"
         inkscape:connector-curvature="0" /></clipPath><clipPath
       clipPathUnits="userSpaceOnUse"
       id="clipPath106"><path
         d="m 23,12.393677 284,0 0,285.000003 -284,0 0,-285.000003 z"
         id="path108"
         inkscape:connector-curvature="0" /></clipPath><mask
       maskUnits="userSpaceOnUse"
       x="0"
       y="0"
       width="1"
       height="1"
       id="mask110"><g
         id="g112"><g
           clip-path="url(#clipPath106)"
           id="g114"><path
             d="m 23,12.393677 284,0 0,285.000003 -284,0 0,-285.000003 z"
             style="fill:#000000;fill-opacity:0.97000002;fill-rule:nonzero;stroke:none"
             id="path116"
             inkscape:connector-curvature="0" /></g></g></mask><clipPath
       clipPathUnits="userSpaceOnUse"
       id="clipPath122"><path
         d="m 23,12.393677 284,0 0,285.000003 -284,0 0,-285.000003 z"
         id="path124"
         inkscape:connector-curvature="0" /></clipPath><clipPath
       clipPathUnits="userSpaceOnUse"
       id="clipPath126"><path
         d="m 23,13 284,0 0,285 -284,0 0,-285 z"
         id="path128"
         inkscape:connector-curvature="0" /></clipPath><clipPath
       clipPathUnits="userSpaceOnUse"
       id="clipPath152"><path
         d="m 309,546.39368 284,0 0,284 -284,0 0,-284 z"
         id="path154"
         inkscape:connector-curvature="0" /></clipPath><mask
       maskUnits="userSpaceOnUse"
       x="0"
       y="0"
       width="1"
       height="1"
       id="mask156"><g
         id="g158"><g
           clip-path="url(#clipPath152)"
           id="g160"><path
             d="m 309,546.39368 284,0 0,284 -284,0 0,-284 z"
             style="fill:#000000;fill-opacity:0.97000002;fill-rule:nonzero;stroke:none"
             id="path162"
             inkscape:connector-curvature="0" /></g></g></mask><clipPath
       clipPathUnits="userSpaceOnUse"
       id="clipPath168"><path
         d="m 309,546.39368 284,0 0,284 -284,0 0,-284 z"
         id="path170"
         inkscape:connector-curvature="0" /></clipPath><clipPath
       clipPathUnits="userSpaceOnUse"
       id="clipPath172"><path
         d="m 309,547 284,0 0,284 -284,0 0,-284 z"
         id="path174"
         inkscape:connector-curvature="0" /></clipPath><clipPath
       clipPathUnits="userSpaceOnUse"
       id="clipPath198"><path
         d="m 597,546.39368 284,0 0,284 -284,0 0,-284 z"
         id="path200"
         inkscape:connector-curvature="0" /></clipPath><mask
       maskUnits="userSpaceOnUse"
       x="0"
       y="0"
       width="1"
       height="1"
       id="mask202"><g
         id="g204"><g
           clip-path="url(#clipPath198)"
           id="g206"><path
             d="m 597,546.39368 284,0 0,284 -284,0 0,-284 z"
             style="fill:#000000;fill-opacity:0.97000002;fill-rule:nonzero;stroke:none"
             id="path208"
             inkscape:connector-curvature="0" /></g></g></mask><clipPath
       clipPathUnits="userSpaceOnUse"
       id="clipPath214"><path
         d="m 597,546.39368 284,0 0,284 -284,0 0,-284 z"
         id="path216"
         inkscape:connector-curvature="0" /></clipPath><clipPath
       clipPathUnits="userSpaceOnUse"
       id="clipPath218"><path
         d="m 597,547 284,0 0,284 -284,0 0,-284 z"
         id="path220"
         inkscape:connector-curvature="0" /></clipPath><clipPath
       clipPathUnits="userSpaceOnUse"
       id="clipPath244"><path
         d="m 887,546.39368 284,0 0,284 -284,0 0,-284 z"
         id="path246"
         inkscape:connector-curvature="0" /></clipPath><mask
       maskUnits="userSpaceOnUse"
       x="0"
       y="0"
       width="1"
       height="1"
       id="mask248"><g
         id="g250"><g
           clip-path="url(#clipPath244)"
           id="g252"><path
             d="m 887,546.39368 284,0 0,284 -284,0 0,-284 z"
             style="fill:#000000;fill-opacity:0.97000002;fill-rule:nonzero;stroke:none"
             id="path254"
             inkscape:connector-curvature="0" /></g></g></mask><clipPath
       clipPathUnits="userSpaceOnUse"
       id="clipPath260"><path
         d="m 887,546.39368 284,0 0,284 -284,0 0,-284 z"
         id="path262"
         inkscape:connector-curvature="0" /></clipPath><clipPath
       clipPathUnits="userSpaceOnUse"
       id="clipPath264"><path
         d="m 887,547 284,0 0,284 -284,0 0,-284 z"
         id="path266"
         inkscape:connector-curvature="0" /></clipPath><clipPath
       clipPathUnits="userSpaceOnUse"
       id="clipPath290"><path
         d="m 572,430.39368 27,0 0,52 -27,0 0,-52 z"
         id="path292"
         inkscape:connector-curvature="0" /></clipPath><mask
       maskUnits="userSpaceOnUse"
       x="0"
       y="0"
       width="1"
       height="1"
       id="mask294"><g
         id="g296"><g
           clip-path="url(#clipPath290)"
           id="g298"><path
             d="m 572,430.39368 27,0 0,52 -27,0 0,-52 z"
             style="fill:#000000;fill-opacity:0.97000002;fill-rule:nonzero;stroke:none"
             id="path300"
             inkscape:connector-curvature="0" /></g></g></mask><clipPath
       clipPathUnits="userSpaceOnUse"
       id="clipPath306"><path
         d="m 572,430.39368 27,0 0,52 -27,0 0,-52 z"
         id="path308"
         inkscape:connector-curvature="0" /></clipPath><clipPath
       clipPathUnits="userSpaceOnUse"
       id="clipPath310"><path
         d="m 572,431 27,0 0,52 -27,0 0,-52 z"
         id="path312"
         inkscape:connector-curvature="0" /></clipPath><clipPath
       clipPathUnits="userSpaceOnUse"
       id="clipPath334"><path
         d="m 1176,546.39368 285,0 0,284 -285,0 0,-284 z"
         id="path336"
         inkscape:connector-curvature="0" /></clipPath><mask
       maskUnits="userSpaceOnUse"
       x="0"
       y="0"
       width="1"
       height="1"
       id="mask338"><g
         id="g340"><g
           clip-path="url(#clipPath334)"
           id="g342"><path
             d="m 1176,546.39368 285,0 0,284 -285,0 0,-284 z"
             style="fill:#000000;fill-opacity:0.97000002;fill-rule:nonzero;stroke:none"
             id="path344"
             inkscape:connector-curvature="0" /></g></g></mask><clipPath
       clipPathUnits="userSpaceOnUse"
       id="clipPath350"><path
         d="m 1176,546.39368 285,0 0,284 -285,0 0,-284 z"
         id="path352"
         inkscape:connector-curvature="0" /></clipPath><clipPath
       clipPathUnits="userSpaceOnUse"
       id="clipPath354"><path
         d="m 1176,547 285,0 0,284 -285,0 0,-284 z"
         id="path356"
         inkscape:connector-curvature="0" /></clipPath><clipPath
       clipPathUnits="userSpaceOnUse"
       id="clipPath380"><path
         d="m 168,279.39368 284,0 0,285 -284,0 0,-285 z"
         id="path382"
         inkscape:connector-curvature="0" /></clipPath><mask
       maskUnits="userSpaceOnUse"
       x="0"
       y="0"
       width="1"
       height="1"
       id="mask384"><g
         id="g386"><g
           clip-path="url(#clipPath380)"
           id="g388"><path
             d="m 168,279.39368 284,0 0,285 -284,0 0,-285 z"
             style="fill:#000000;fill-opacity:0.97000002;fill-rule:nonzero;stroke:none"
             id="path390"
             inkscape:connector-curvature="0" /></g></g></mask><clipPath
       clipPathUnits="userSpaceOnUse"
       id="clipPath396"><path
         d="m 168,279.39368 284,0 0,285 -284,0 0,-285 z"
         id="path398"
         inkscape:connector-curvature="0" /></clipPath><clipPath
       clipPathUnits="userSpaceOnUse"
       id="clipPath400"><path
         d="m 168,280 284,0 0,285 -284,0 0,-285 z"
         id="path402"
         inkscape:connector-curvature="0" /></clipPath><clipPath
       clipPathUnits="userSpaceOnUse"
       id="clipPath428"><path
         d="m 16,546.39368 284,0 0,284 -284,0 0,-284 z"
         id="path430"
         inkscape:connector-curvature="0" /></clipPath><mask
       maskUnits="userSpaceOnUse"
       x="0"
       y="0"
       width="1"
       height="1"
       id="mask432"><g
         id="g434"><g
           clip-path="url(#clipPath428)"
           id="g436"><path
             d="m 16,546.39368 284,0 0,284 -284,0 0,-284 z"
             style="fill:#000000;fill-opacity:0.97000002;fill-rule:nonzero;stroke:none"
             id="path438"
             inkscape:connector-curvature="0" /></g></g></mask><clipPath
       clipPathUnits="userSpaceOnUse"
       id="clipPath444"><path
         d="m 16,546.39368 284,0 0,284 -284,0 0,-284 z"
         id="path446"
         inkscape:connector-curvature="0" /></clipPath><clipPath
       clipPathUnits="userSpaceOnUse"
       id="clipPath448"><path
         d="m 16,547 284,0 0,284 -284,0 0,-284 z"
         id="path450"
         inkscape:connector-curvature="0" /></clipPath><clipPath
       clipPathUnits="userSpaceOnUse"
       id="clipPath478"><path
         d="m 620,430.39368 27,0 0,52 -27,0 0,-52 z"
         id="path480"
         inkscape:connector-curvature="0" /></clipPath><mask
       maskUnits="userSpaceOnUse"
       x="0"
       y="0"
       width="1"
       height="1"
       id="mask482"><g
         id="g484"><g
           clip-path="url(#clipPath478)"
           id="g486"><path
             d="m 620,430.39368 27,0 0,52 -27,0 0,-52 z"
             style="fill:#000000;fill-opacity:0.97000002;fill-rule:nonzero;stroke:none"
             id="path488"
             inkscape:connector-curvature="0" /></g></g></mask><clipPath
       clipPathUnits="userSpaceOnUse"
       id="clipPath494"><path
         d="m 620,430.39368 27,0 0,52 -27,0 0,-52 z"
         id="path496"
         inkscape:connector-curvature="0" /></clipPath><clipPath
       clipPathUnits="userSpaceOnUse"
       id="clipPath498"><path
         d="m 620,431 27,0 0,52 -27,0 0,-52 z"
         id="path500"
         inkscape:connector-curvature="0" /></clipPath></defs><sodipodi:namedview
     pagecolor="#ffffff"
     bordercolor="#666666"
     borderopacity="1"
     objecttolerance="10"
     gridtolerance="10"
     guidetolerance="10"
     inkscape:pageopacity="0"
     inkscape:pageshadow="2"
     inkscape:window-width="1366"
     inkscape:window-height="646"
     id="namedview4"
     showgrid="false"
     inkscape:zoom="0.55147006"
     inkscape:cx="747.38689"
     inkscape:cy="756.07275"
     inkscape:window-x="0"
     inkscape:window-y="1"
     inkscape:window-maximized="1"
     inkscape:current-layer="g10" /><g
     id="g10"
     inkscape:groupmode="layer"
     inkscape:label="pinezero2"
     transform="matrix(1.25,0,0,-1.25,0,1062.9921)"><g
       id="g104"
       style="stroke-width:0.08503937;stroke-miterlimit:4;stroke-dasharray:none" /><g
       id="g196"
       style="stroke-width:0.08503937;stroke-miterlimit:4;stroke-dasharray:none" /><polygon
       style="fill:none;stroke:#000000;stroke-width:0.10629921;stroke-miterlimit:4.66666651;stroke-dasharray:none;stroke-opacity:1"
       transform="matrix(0,-0.8,-0.8,0,275.82233,249.087)"
       onclick="draw_circ(this)"
       class="st0"
       points="143,0.9 54.9,136.2 75.3,136.2 29.4,206.8 49.6,206.8 0.9,281.5 50.9,281.5 50.9,295.7 235.1,295.7 235.1,281.5 285.1,281.5 236.3,206.8 256.8,206.8 210.8,136.2 231.2,136.2 "
       id="polygon5101" /><path
       id="path6367"
       style="fill:none;stroke:#000000;stroke-width:0.08503937;stroke-linecap:square;stroke-linejoin:round;stroke-miterlimit:4.66666651;stroke-dasharray:none;stroke-opacity:1"
       d="m 86.499213,684.11909 146.318737,0 0,-15.59056 -146.318737,0 z M 159.80341,831.54421 C 83.240823,831.46332 20.58184,770.59267 18.28466,694.06452 l 25.29997,0 0,-8.50469 -25.36247,0 c 2.29793,-76.55237 64.994403,-137.43255 141.58125,-137.47968 76.58745,0.0463 139.28485,60.9267 141.58281,137.47968 l -25.36064,0 0,8.50469 25.29814,0 c -2.2972,76.52876 -64.95712,137.39965 -141.52031,137.47969 z" /><g
       id="g6393"
       transform="translate(-581.80727,256.95421)"
       style="fill:none;stroke:#000000;stroke-width:0.08503937;stroke-miterlimit:4.66666651;stroke-dasharray:none;stroke-opacity:1"><path
         id="path6345"
         d="m 649.78446,135.28774 179.855,0 c 1.219,0 2.199,-0.98 2.199,-2.199 l 0,-18.281 c 0,-1.215 -0.98,-2.199 -2.199,-2.199 l -179.855,0 c -1.219,0 -2.2,0.984 -2.2,2.199 l 0,18.281 c 0,1.219 0.981,2.199 2.2,2.199 z"
         style="fill:none;stroke:#000000;stroke-width:0.08503937;stroke-linecap:square;stroke-linejoin:round;stroke-miterlimit:4.66666651;stroke-dasharray:none;stroke-opacity:1"
         inkscape:connector-curvature="0"
         sodipodi:nodetypes="sssssssss" /><path
         id="path6361"
         d="M 739.05668,281.86177 C 662.49409,281.78088 599.83511,220.91023 597.53793,144.38208 l 25.29997,0 0,-8.50469 -25.36247,0 c 2.29793,-76.552368 64.9944,-137.4325479 141.58125,-137.4796779 76.58745,0.0463 139.28485,60.9266999 141.58281,137.4796779 l -25.36064,0 0,8.50469 25.29814,0 c -2.2972,76.52876 -64.95712,137.39965 -141.52031,137.47969 z"
         style="color:#000000;display:inline;overflow:visible;visibility:visible;opacity:0.97000002;fill:none;fill-opacity:1;fill-rule:nonzero;stroke:#000000;stroke-width:0.08503937;stroke-linecap:square;stroke-linejoin:round;stroke-miterlimit:4.66666651;stroke-dasharray:none;stroke-dashoffset:0;stroke-opacity:1;marker:none;enable-background:accumulate"
         inkscape:connector-curvature="0" /></g><g
       style="fill:none;stroke:#000000;stroke-width:0.08503937;stroke-miterlimit:4.66666651;stroke-dasharray:none;stroke-opacity:1"
       transform="translate(-297.60417,148.15421)"
       id="g4273"><path
         sodipodi:nodetypes="sssssssss"
         inkscape:connector-curvature="0"
         style="fill:none;stroke:#000000;stroke-width:0.08503937;stroke-linecap:square;stroke-linejoin:round;stroke-miterlimit:4.66666651;stroke-dasharray:none;stroke-opacity:1"
         d="m 649.78446,135.28774 179.855,0 c 1.219,0 2.199,-0.98 2.199,-2.199 l 0,-18.281 c 0,-1.215 -0.98,-2.199 -2.199,-2.199 l -179.855,0 c -1.219,0 -2.2,0.984 -2.2,2.199 l 0,18.281 c 0,1.219 0.981,2.199 2.2,2.199 z"
         id="path4275" /><path
         inkscape:connector-curvature="0"
         style="color:#000000;display:inline;overflow:visible;visibility:visible;opacity:0.97000002;fill:none;fill-opacity:1;fill-rule:nonzero;stroke:#000000;stroke-width:0.08503937;stroke-linecap:square;stroke-linejoin:round;stroke-miterlimit:4.66666651;stroke-dasharray:none;stroke-dashoffset:0;stroke-opacity:1;marker:none;enable-background:accumulate"
         d="M 739.05668,281.86177 C 662.49409,281.78088 599.83511,220.91023 597.53793,144.38208 l 25.29997,0 0,-8.50469 -25.36247,0 c 2.29793,-76.552368 64.9944,-137.4325479 141.58125,-137.4796779 76.58745,0.0463 139.28485,60.9266999 141.58281,137.4796779 l -25.36064,0 0,8.50469 25.29814,0 c -2.2972,76.52876 -64.95712,137.39965 -141.52031,137.47969 z"
         id="path4277" /></g><g
       style="fill:none;stroke:#000000;stroke-width:0.08503937;stroke-miterlimit:4.66666651;stroke-dasharray:none;stroke-opacity:1"
       transform="translate(-28.20727,261.75421)"
       id="g4309"><path
         sodipodi:nodetypes="sssssssss"
         inkscape:connector-curvature="0"
         style="fill:none;stroke:#000000;stroke-width:0.08503937;stroke-linecap:square;stroke-linejoin:round;stroke-miterlimit:4.66666651;stroke-dasharray:none;stroke-opacity:1"
         d="m 649.78446,135.28774 179.855,0 c 1.219,0 2.199,-0.98 2.199,-2.199 l 0,-18.281 c 0,-1.215 -0.98,-2.199 -2.199,-2.199 l -179.855,0 c -1.219,0 -2.2,0.984 -2.2,2.199 l 0,18.281 c 0,1.219 0.981,2.199 2.2,2.199 z"
         id="path4311" /><path
         inkscape:connector-curvature="0"
         style="color:#000000;display:inline;overflow:visible;visibility:visible;opacity:0.97000002;fill:none;fill-opacity:1;fill-rule:nonzero;stroke:#000000;stroke-width:0.08503937;stroke-linecap:square;stroke-linejoin:round;stroke-miterlimit:4.66666651;stroke-dasharray:none;stroke-dashoffset:0;stroke-opacity:1;marker:none;enable-background:accumulate"
         d="M 739.05668,281.86177 C 662.49409,281.78088 599.83511,220.91023 597.53793,144.38208 l 25.29997,0 0,-8.50469 -25.36247,0 c 2.29793,-76.552368 64.9944,-137.4325479 141.58125,-137.4796779 76.58745,0.0463 139.28485,60.9266999 141.58281,137.4796779 l -25.36064,0 0,8.50469 25.29814,0 c -2.2972,76.52876 -64.95712,137.39965 -141.52031,137.47969 z"
         id="path4313" /></g><g
       id="g4321"
       transform="translate(249.59583,160.95421)"
       style="fill:none;stroke:#000000;stroke-width:0.08503937;stroke-miterlimit:4.66666651;stroke-dasharray:none;stroke-opacity:1"><path
         id="path4323"
         d="m 649.78446,135.28774 179.855,0 c 1.219,0 2.199,-0.98 2.199,-2.199 l 0,-18.281 c 0,-1.215 -0.98,-2.199 -2.199,-2.199 l -179.855,0 c -1.219,0 -2.2,0.984 -2.2,2.199 l 0,18.281 c 0,1.219 0.981,2.199 2.2,2.199 z"
         style="fill:none;stroke:#000000;stroke-width:0.08503937;stroke-linecap:square;stroke-linejoin:round;stroke-miterlimit:4.66666651;stroke-dasharray:none;stroke-opacity:1"
         inkscape:connector-curvature="0"
         sodipodi:nodetypes="sssssssss" /><path
         id="path4325"
         d="M 739.05668,281.86177 C 662.49409,281.78088 599.83511,220.91023 597.53793,144.38208 l 25.29997,0 0,-8.50469 -25.36247,0 c 2.29793,-76.552368 64.9944,-137.4325479 141.58125,-137.4796779 76.58745,0.0463 139.28485,60.9266999 141.58281,137.4796779 l -25.36064,0 0,8.50469 25.29814,0 c -2.2972,76.52876 -64.95712,137.39965 -141.52031,137.47969 z"
         style="color:#000000;display:inline;overflow:visible;visibility:visible;opacity:0.97000002;fill:none;fill-opacity:1;fill-rule:nonzero;stroke:#000000;stroke-width:0.08503937;stroke-linecap:square;stroke-linejoin:round;stroke-miterlimit:4.66666651;stroke-dasharray:none;stroke-dashoffset:0;stroke-opacity:1;marker:none;enable-background:accumulate"
         inkscape:connector-curvature="0" /></g><g
       id="g4335"
       transform="translate(526.99273,261.75421)"
       style="fill:none;stroke:#000000;stroke-width:0.08503937;stroke-miterlimit:4.66666651;stroke-dasharray:none;stroke-opacity:1"><path
         id="path4337"
         d="m 649.78446,135.28774 179.855,0 c 1.219,0 2.199,-0.98 2.199,-2.199 l 0,-18.281 c 0,-1.215 -0.98,-2.199 -2.199,-2.199 l -179.855,0 c -1.219,0 -2.2,0.984 -2.2,2.199 l 0,18.281 c 0,1.219 0.981,2.199 2.2,2.199 z"
         style="fill:none;stroke:#000000;stroke-width:0.08503937;stroke-linecap:square;stroke-linejoin:round;stroke-miterlimit:4.66666651;stroke-dasharray:none;stroke-opacity:1"
         inkscape:connector-curvature="0"
         sodipodi:nodetypes="sssssssss" /><path
         id="path4339"
         d="M 739.05668,281.86177 C 662.49409,281.78088 599.83511,220.91023 597.53793,144.38208 l 25.29997,0 0,-8.50469 -25.36247,0 c 2.29793,-76.552368 64.9944,-137.4325479 141.58125,-137.4796779 76.58745,0.0463 139.28485,60.9266999 141.58281,137.4796779 l -25.36064,0 0,8.50469 25.29814,0 c -2.2972,76.52876 -64.95712,137.39965 -141.52031,137.47969 z"
         style="color:#000000;display:inline;overflow:visible;visibility:visible;opacity:0.97000002;fill:none;fill-opacity:1;fill-rule:nonzero;stroke:#000000;stroke-width:0.08503937;stroke-linecap:square;stroke-linejoin:round;stroke-miterlimit:4.66666651;stroke-dasharray:none;stroke-dashoffset:0;stroke-opacity:1;marker:none;enable-background:accumulate"
         inkscape:connector-curvature="0" /></g><g
       style="fill:none;stroke:#000000;stroke-width:0.08503937;stroke-miterlimit:4.66666651;stroke-dasharray:none;stroke-opacity:1"
       transform="translate(793.59583,149.75421)"
       id="g4347"><path
         sodipodi:nodetypes="sssssssss"
         inkscape:connector-curvature="0"
         style="fill:none;stroke:#000000;stroke-width:0.08503937;stroke-linecap:square;stroke-linejoin:round;stroke-miterlimit:4.66666651;stroke-dasharray:none;stroke-opacity:1"
         d="m 649.78446,135.28774 179.855,0 c 1.219,0 2.199,-0.98 2.199,-2.199 l 0,-18.281 c 0,-1.215 -0.98,-2.199 -2.199,-2.199 l -179.855,0 c -1.219,0 -2.2,0.984 -2.2,2.199 l 0,18.281 c 0,1.219 0.981,2.199 2.2,2.199 z"
         id="path4349" /><path
         inkscape:connector-curvature="0"
         style="color:#000000;display:inline;overflow:visible;visibility:visible;opacity:0.97000002;fill:none;fill-opacity:1;fill-rule:nonzero;stroke:#000000;stroke-width:0.08503937;stroke-linecap:square;stroke-linejoin:round;stroke-miterlimit:4.66666651;stroke-dasharray:none;stroke-dashoffset:0;stroke-opacity:1;marker:none;enable-background:accumulate"
         d="M 739.05668,281.86177 C 662.49409,281.78088 599.83511,220.91023 597.53793,144.38208 l 25.29997,0 0,-8.50469 -25.36247,0 c 2.29793,-76.552368 64.9944,-137.4325479 141.58125,-137.4796779 76.58745,0.0463 139.28485,60.9266999 141.58281,137.4796779 l -25.36064,0 0,8.50469 25.29814,0 c -2.2972,76.52876 -64.95712,137.39965 -141.52031,137.47969 z"
         id="path4351" /></g><polygon
       id="polygon4367"
       points="231.2,136.2 143,0.9 54.9,136.2 75.3,136.2 29.4,206.8 49.6,206.8 0.9,281.5 50.9,281.5 50.9,295.7 235.1,295.7 235.1,281.5 285.1,281.5 236.3,206.8 256.8,206.8 210.8,136.2 "
       class="st0"
       onclick="draw_circ(this)"
       transform="matrix(0,-0.8,-0.8,0,963.82233,249.087)"
       style="fill:none;stroke:#000000;stroke-width:0.10629921;stroke-miterlimit:4.66666651;stroke-dasharray:none;stroke-opacity:1" /><polygon
       style="fill:none;stroke:#000000;stroke-width:0.10629921;stroke-miterlimit:4.66666651;stroke-dasharray:none;stroke-opacity:1"
       transform="matrix(0,-0.8,0.8,0,483.3777,249.087)"
       onclick="draw_circ(this)"
       class="st0"
       points="29.4,206.8 49.6,206.8 0.9,281.5 50.9,281.5 50.9,295.7 235.1,295.7 235.1,281.5 285.1,281.5 236.3,206.8 256.8,206.8 210.8,136.2 231.2,136.2 143,0.9 54.9,136.2 75.3,136.2 "
       id="polygon4369" /><polygon
       style="fill:none;stroke:#000000;stroke-width:0.10629921;stroke-miterlimit:4.66666651;stroke-dasharray:none;stroke-opacity:1"
       transform="matrix(0,-0.8,-0.8,0,1485.4223,249.087)"
       onclick="draw_circ(this)"
       class="st0"
       points="231.2,136.2 143,0.9 54.9,136.2 75.3,136.2 29.4,206.8 49.6,206.8 0.9,281.5 50.9,281.5 50.9,295.7 235.1,295.7 235.1,281.5 285.1,281.5 236.3,206.8 256.8,206.8 210.8,136.2 "
       id="polygon4371" /><polygon
       id="polygon4373"
       points="29.4,206.8 49.6,206.8 0.9,281.5 50.9,281.5 50.9,295.7 235.1,295.7 235.1,281.5 285.1,281.5 236.3,206.8 256.8,206.8 210.8,136.2 231.2,136.2 143,0.9 54.9,136.2 75.3,136.2 "
       class="st0"
       onclick="draw_circ(this)"
       transform="matrix(0,-0.8,0.8,0,1004.9777,249.087)"
       style="fill:none;stroke:#000000;stroke-width:0.10629921;stroke-miterlimit:4.66666651;stroke-dasharray:none;stroke-opacity:1" /><path
       d="m 361.74831,581.71909 146.31874,0 0,-15.59056 -146.31874,0 z m 73.3042,147.42512 C 358.48992,729.06332 295.83094,668.19267 293.53376,591.66452 l 25.29997,0 0,-8.50469 -25.36247,0 c 2.29793,-76.55237 64.9944,-137.43255 141.58125,-137.47968 76.58745,0.0463 139.28485,60.9267 141.58281,137.47968 l -25.36064,0 0,8.50469 25.29814,0 c -2.2972,76.52876 -64.95712,137.39965 -141.52031,137.47969 z"
       style="fill:none;stroke:#000000;stroke-width:0.08503937;stroke-linecap:square;stroke-linejoin:round;stroke-miterlimit:4.66666651;stroke-dasharray:none;stroke-opacity:1"
       id="path4304"
       inkscape:connector-curvature="0" /><path
       inkscape:connector-curvature="0"
       id="path4328"
       style="fill:none;stroke:#000000;stroke-width:0.08503937;stroke-linecap:square;stroke-linejoin:round;stroke-miterlimit:4.66666651;stroke-dasharray:none;stroke-opacity:1"
       d="m 640.09921,693.71909 146.31874,0 0,-15.59056 -146.31874,0 z m 73.3042,147.42512 C 636.84082,841.06332 574.18184,780.19267 571.88466,703.66452 l 25.29997,0 0,-8.50469 -25.36247,0 c 2.29793,-76.55237 64.9944,-137.43255 141.58125,-137.47968 76.58745,0.0463 139.28485,60.9267 141.58281,137.47968 l -25.36064,0 0,8.50469 25.29814,0 c -2.2972,76.52876 -64.95712,137.39965 -141.52031,137.47969 z" /><path
       d="m 915.34831,592.91909 146.31869,0 0,-15.59056 -146.31869,0 z m 73.3042,147.42512 C 912.08992,740.26332 849.43094,679.39267 847.13376,602.86452 l 25.29997,0 0,-8.50469 -25.36247,0 c 2.29793,-76.55237 64.9944,-137.43255 141.58125,-137.47968 76.58749,0.0463 139.28489,60.9267 141.58279,137.47968 l -25.3606,0 0,8.50469 25.2981,0 c -2.2972,76.52876 -64.9571,137.39965 -141.52029,137.47969 z"
       style="fill:none;stroke:#000000;stroke-width:0.08503937;stroke-linecap:square;stroke-linejoin:round;stroke-miterlimit:4.66666651;stroke-dasharray:none;stroke-opacity:1"
       id="path4330"
       inkscape:connector-curvature="0" /><path
       inkscape:connector-curvature="0"
       id="path4338"
       style="fill:none;stroke:#000000;stroke-width:0.08503937;stroke-linecap:square;stroke-linejoin:round;stroke-miterlimit:4.66666651;stroke-dasharray:none;stroke-opacity:1"
       d="m 1195.2992,693.71909 146.3187,0 0,-15.59056 -146.3187,0 z m 73.3042,147.42512 c -76.5626,-0.0809 -139.2216,-60.95154 -141.5187,-137.47969 l 25.2999,0 0,-8.50469 -25.3624,0 c 2.2979,-76.55237 64.9944,-137.43255 141.5812,-137.47968 76.5875,0.0463 139.2849,60.9267 141.5828,137.47968 l -25.3606,0 0,8.50469 25.2981,0 c -2.2972,76.52876 -64.9571,137.39965 -141.5203,137.47969 z" /><path
       d="m 1459.3483,576.91909 146.3187,0 0,-15.59056 -146.3187,0 z m 73.3042,147.42512 c -76.5626,-0.0809 -139.2216,-60.95154 -141.5187,-137.47969 l 25.2999,0 0,-8.50469 -25.3624,0 c 2.2979,-76.55237 64.9944,-137.43255 141.5812,-137.47968 76.5875,0.0463 139.2849,60.9267 141.5828,137.47968 l -25.3606,0 0,8.50469 25.2981,0 c -2.2972,76.52876 -64.9571,137.39965 -141.5203,137.47969 z"
       style="fill:none;stroke:#000000;stroke-width:0.08503937;stroke-linecap:square;stroke-linejoin:round;stroke-miterlimit:4.66666651;stroke-dasharray:none;stroke-opacity:1"
       id="path4340"
       inkscape:connector-curvature="0" /></g></svg>