<?xml version="1.0" encoding="UTF-8" standalone="no"?>
<!-- Created with Inkscape (http://www.inkscape.org/) -->

<svg
   xmlns:dc="http://purl.org/dc/elements/1.1/"
   xmlns:cc="http://creativecommons.org/ns#"
   xmlns:rdf="http://www.w3.org/1999/02/22-rdf-syntax-ns#"
   xmlns:svg="http://www.w3.org/2000/svg"
   xmlns="http://www.w3.org/2000/svg"
   xmlns:sodipodi="http://sodipodi.sourceforge.net/DTD/sodipodi-0.dtd"
   xmlns:inkscape="http://www.inkscape.org/namespaces/inkscape"
   width="600mm"
   height="300mm"
   viewBox="0 0 2125.9842 1062.9921"
   id="svg2"
   version="1.1"
   inkscape:version="0.91 r13725"
   sodipodi:docname="pinezero.svg">
  <defs
     id="defs4">
    <clipPath
       id="clipPath18"
       clipPathUnits="userSpaceOnUse">
      <path
         inkscape:connector-curvature="0"
         id="path20"
         d="m 0,0 3378.76,0 0,703 L 0,703 0,0 Z" />
    </clipPath>
  </defs>
  <sodipodi:namedview
     id="base"
     pagecolor="#ffffff"
     bordercolor="#666666"
     borderopacity="1.0"
     inkscape:pageopacity="0.0"
     inkscape:pageshadow="2"
     inkscape:zoom="0.30651119"
     inkscape:cx="1097.2716"
     inkscape:cy="447.52378"
     inkscape:document-units="px"
     inkscape:current-layer="layer1"
     showgrid="false"
     inkscape:window-width="1366"
     inkscape:window-height="646"
     inkscape:window-x="0"
     inkscape:window-y="1"
     inkscape:window-maximized="1"
     width="600mm"
     showguides="false" />
  <metadata
     id="metadata7">
    <rdf:RDF>
      <cc:Work
         rdf:about="">
        <dc:format>image/svg+xml</dc:format>
        <dc:type
           rdf:resource="http://purl.org/dc/dcmitype/StillImage" />
        <dc:title />
      </cc:Work>
    </rdf:RDF>
  </metadata>
  <g
     inkscape:label="Layer 1"
     inkscape:groupmode="layer"
     id="layer1"
     transform="translate(0,10.629918)">
    <path
       sodipodi:nodetypes="cssssccssssccccccccccccc"
       inkscape:connector-curvature="0"
       id="path4615"
       d="m 925.34508,538.13967 0,9.3164 c 0,7.7232 -6.2181,13.9395 -13.9414,13.9395 l -237.8672,0 c -7.7232,0 -13.9394,-6.2163 -13.9394,-13.9395 l 0,-9.3164 0,-10.6308 0,-93.9043 c 0,-7.7232 6.2162,-13.9395 13.9394,-13.9395 l 237.8672,0 c 7.7233,0 13.9414,6.2163 13.9414,13.9395 l 0,93.9043 z m 12.9139,-30.6308 30.3732,0 c -2.8724,-95.6912 -81.2442,-171.7917 -176.9785,-171.8496 -95.7032,0.1011 -174.0269,76.1894 -176.8984,171.8496 l 31.9285,0 0,10.6308 -32.0067,0 c 2.8724,95.6905 81.243,171.7907 176.9766,171.8496 95.704,-0.1 174.0289,-76.1887 176.9004,-171.8496 l -30.2951,0 z"
       style="color:#000000;display:inline;overflow:visible;visibility:visible;opacity:1;fill:none;fill-opacity:1;fill-rule:nonzero;stroke:#000000;stroke-width:0.106;stroke-linecap:square;stroke-linejoin:round;stroke-miterlimit:5.5999999;stroke-dasharray:none;stroke-dashoffset:0;stroke-opacity:1;marker:none;enable-background:accumulate" />
    <text
       xml:space="preserve"
       style="font-style:normal;font-variant:normal;font-weight:bold;font-stretch:normal;font-size:16px;line-height:125%;font-family:Arial;-inkscape-font-specification:'Arial Bold';text-align:end;letter-spacing:0px;word-spacing:0px;text-anchor:end;fill:#000000;fill-opacity:1;stroke:none;stroke-width:1px;stroke-linecap:butt;stroke-linejoin:miter;stroke-opacity:1;opacity:1;"
       x="-648.71576"
       y="707.17889"
       id="text4181"
       sodipodi:linespacing="125%"><tspan
         sodipodi:role="line"
         id="tspan4183"
         x="-648.71576"
         y="707.17889">bottom layer 0: nut sized holes only</tspan><tspan
         sodipodi:role="line"
         x="-648.71576"
         y="727.17889"
         id="tspan4185">layer 1: nut sized holes only</tspan><tspan
         sodipodi:role="line"
         x="-648.71576"
         y="747.17889"
         id="tspan4187">layer 2: pibow shaped hole</tspan><tspan
         sodipodi:role="line"
         x="-648.71576"
         y="767.17889"
         id="tspan4195">layers 3-5: pibow shaped hole and cable slot</tspan><tspan
         sodipodi:role="line"
         x="-648.71576"
         y="787.17889"
         id="tspan4365">layer 6: pibow shaped hole</tspan><tspan
         sodipodi:role="line"
         x="-648.71576"
         y="807.17889"
         id="tspan4191">layer 7 (acrylic): tree slot 6mm and screw sized holes</tspan><tspan
         sodipodi:role="line"
         x="-648.71576"
         y="827.17889"
         id="tspan4199">layer 8 (acrylic): tree slot 6mm and nut sized holes</tspan></text>
    <circle
       r="177.16536"
       cy="481.06427"
       cx="-802.08112"
       id="circle4199"
       style="color:#000000;display:inline;overflow:visible;visibility:visible;opacity:1;fill:#ffdd55;fill-opacity:1;fill-rule:nonzero;stroke:none;stroke-width:0.99999994;stroke-linecap:square;stroke-linejoin:round;stroke-miterlimit:4;stroke-dasharray:none;stroke-dashoffset:0;stroke-opacity:1;marker:none;enable-background:accumulate" />
    <path
       style="color:#000000;display:inline;overflow:visible;visibility:visible;opacity:1;fill:#ffd5d5;fill-opacity:1;fill-rule:nonzero;stroke:none;stroke-width:1;stroke-linecap:square;stroke-linejoin:round;stroke-miterlimit:4;stroke-dasharray:none;stroke-dashoffset:0;stroke-opacity:1;marker:none;enable-background:accumulate"
       d="m -920.19917,367.90533 c -7.72325,0 -13.93946,6.21621 -13.93946,13.93945 l 0,113.85157 c 0,7.72324 6.21621,13.93945 13.93946,13.93945 l 237.86718,0 c 7.72325,0 13.94141,-6.21621 13.94141,-13.93945 l 0,-113.85157 c 0,-7.72324 -6.21816,-13.93945 -13.94141,-13.93945 l -237.86718,0 z"
       id="path4185"
       inkscape:connector-curvature="0" />
    <g
       id="g4213"
       transform="translate(-381.64644,-230.93256)"
       style="opacity:1">
      <circle
         r="10.629921"
         cy="611.23944"
         cx="-299.47867"
         id="circle4172"
         style="color:#000000;display:inline;overflow:visible;visibility:visible;opacity:0.325;fill:#666666;fill-opacity:1;fill-rule:nonzero;stroke:none;stroke-width:0.99999994;stroke-linecap:square;stroke-linejoin:round;stroke-miterlimit:4;stroke-dasharray:none;stroke-dashoffset:0;stroke-opacity:1;marker:none;enable-background:accumulate" />
      <circle
         style="color:#000000;display:inline;overflow:visible;visibility:visible;opacity:0.325;fill:#666666;fill-opacity:1;fill-rule:nonzero;stroke:none;stroke-width:0.99999994;stroke-linecap:square;stroke-linejoin:round;stroke-miterlimit:4;stroke-dasharray:none;stroke-dashoffset:0;stroke-opacity:1;marker:none;enable-background:accumulate"
         id="circle4187"
         cx="-299.47852"
         cy="728.16699"
         r="10.629921" />
      <circle
         style="color:#000000;display:inline;overflow:visible;visibility:visible;opacity:0.325;fill:#666666;fill-opacity:1;fill-rule:nonzero;stroke:none;stroke-width:0.99999994;stroke-linecap:square;stroke-linejoin:round;stroke-miterlimit:4;stroke-dasharray:none;stroke-dashoffset:0;stroke-opacity:1;marker:none;enable-background:accumulate"
         id="circle4189"
         cx="-539.75781"
         cy="611.23944"
         r="10.629921" />
      <circle
         r="10.629921"
         cy="728.16699"
         cx="-539.75781"
         id="circle4191"
         style="color:#000000;display:inline;overflow:visible;visibility:visible;opacity:0.325;fill:#666666;fill-opacity:1;fill-rule:nonzero;stroke:none;stroke-width:0.99999994;stroke-linecap:square;stroke-linejoin:round;stroke-miterlimit:4;stroke-dasharray:none;stroke-dashoffset:0;stroke-opacity:1;marker:none;enable-background:accumulate" />
    </g>
    <g
       id="g4219"
       transform="translate(-381.64644,-230.93256)"
       style="opacity:1">
      <path
         inkscape:connector-curvature="0"
         id="path4180"
         d="m -299.47852,605.92383 a 5.3149605,5.3149605 0 0 1 5.31446,5.3164 5.3149605,5.3149605 0 0 1 -5.31446,5.31446 5.3149605,5.3149605 0 0 1 -5.31445,-5.31446 5.3149605,5.3149605 0 0 1 5.31445,-5.3164 z"
         style="color:#000000;display:inline;overflow:visible;visibility:visible;opacity:0.97000002;fill:#ff8080;fill-opacity:1;fill-rule:nonzero;stroke:none;stroke-width:1;stroke-linecap:square;stroke-linejoin:round;stroke-miterlimit:4;stroke-dasharray:none;stroke-dashoffset:0;stroke-opacity:1;marker:none;enable-background:accumulate" />
      <path
         inkscape:connector-curvature="0"
         id="path4178"
         d="m -539.75781,605.92383 a 5.3149605,5.3149605 0 0 1 5.31445,5.31445 5.3149605,5.3149605 0 0 1 -5.31445,5.31445 5.3149605,5.3149605 0 0 1 -5.31446,-5.31445 5.3149605,5.3149605 0 0 1 5.31446,-5.31445 z"
         style="color:#000000;display:inline;overflow:visible;visibility:visible;opacity:0.97000002;fill:#ff8080;fill-opacity:1;fill-rule:nonzero;stroke:none;stroke-width:1;stroke-linecap:square;stroke-linejoin:round;stroke-miterlimit:4;stroke-dasharray:none;stroke-dashoffset:0;stroke-opacity:1;marker:none;enable-background:accumulate" />
      <path
         inkscape:connector-curvature="0"
         id="path4176"
         d="m -539.75781,722.85156 a 5.3149605,5.3149605 0 0 1 5.31445,5.31446 5.3149605,5.3149605 0 0 1 -5.31445,5.3164 5.3149605,5.3149605 0 0 1 -5.31446,-5.3164 5.3149605,5.3149605 0 0 1 5.31446,-5.31446 z"
         style="color:#000000;display:inline;overflow:visible;visibility:visible;opacity:0.97000002;fill:#ff8080;fill-opacity:1;fill-rule:nonzero;stroke:none;stroke-width:1;stroke-linecap:square;stroke-linejoin:round;stroke-miterlimit:4;stroke-dasharray:none;stroke-dashoffset:0;stroke-opacity:1;marker:none;enable-background:accumulate" />
      <path
         inkscape:connector-curvature="0"
         id="rect4147"
         d="m -299.47852,722.85156 a 5.3149605,5.3149605 0 0 1 5.31446,5.31446 5.3149605,5.3149605 0 0 1 -5.31446,5.3164 5.3149605,5.3149605 0 0 1 -5.31445,-5.3164 5.3149605,5.3149605 0 0 1 5.31445,-5.31446 z"
         style="color:#000000;display:inline;overflow:visible;visibility:visible;opacity:0.97000002;fill:#ff8080;fill-opacity:1;fill-rule:nonzero;stroke:none;stroke-width:1;stroke-linecap:square;stroke-linejoin:round;stroke-miterlimit:4;stroke-dasharray:none;stroke-dashoffset:0;stroke-opacity:1;marker:none;enable-background:accumulate" />
    </g>
    <rect
       style="color:#000000;display:inline;overflow:visible;visibility:visible;opacity:1;fill:#000000;fill-opacity:1;fill-rule:nonzero;stroke:none;stroke-width:0.99999994;stroke-linecap:square;stroke-linejoin:round;stroke-miterlimit:4;stroke-dasharray:none;stroke-dashoffset:0;stroke-opacity:1;marker:none;enable-background:accumulate"
       id="rect4151"
       width="230.31496"
       height="28.346457"
       x="-916.42206"
       y="467.11615"
       ry="2.7482567" />
    <rect
       style="color:#000000;display:inline;overflow:visible;visibility:visible;opacity:1;fill:#000000;fill-opacity:1;fill-rule:nonzero;stroke:none;stroke-width:1;stroke-linecap:square;stroke-linejoin:round;stroke-miterlimit:4;stroke-dasharray:none;stroke-dashoffset:0;stroke-opacity:1;marker:none;enable-background:accumulate"
       id="rect4195"
       width="42.519684"
       height="94.640594"
       x="-898.70557"
       y="280.4231"
       ry="0" />
    <rect
       style="color:#000000;display:inline;overflow:visible;visibility:visible;opacity:1;fill:#ffff00;fill-opacity:1;fill-rule:nonzero;stroke:none;stroke-width:1;stroke-linecap:square;stroke-linejoin:round;stroke-miterlimit:4;stroke-dasharray:none;stroke-dashoffset:0;stroke-opacity:1;marker:none;enable-background:accumulate"
       id="rect4245"
       width="31.889763"
       height="10.629921"
       x="-979.24646"
       y="475.74933" />
    <rect
       y="475.74933"
       x="-656.80554"
       height="10.629921"
       width="31.889763"
       id="rect4247"
       style="color:#000000;display:inline;overflow:visible;visibility:visible;opacity:1;fill:#ffff00;fill-opacity:1;fill-rule:nonzero;stroke:none;stroke-width:1;stroke-linecap:square;stroke-linejoin:round;stroke-miterlimit:4;stroke-dasharray:none;stroke-dashoffset:0;stroke-opacity:1;marker:none;enable-background:accumulate" />
    <g
       id="g4299"
       transform="translate(-381.64644,-230.93256)"
       style="opacity:1">
      <rect
         style="color:#000000;display:inline;overflow:visible;visibility:visible;opacity:0.97000002;fill:#808000;fill-opacity:1;fill-rule:nonzero;stroke:none;stroke-width:1;stroke-linecap:square;stroke-linejoin:round;stroke-miterlimit:4;stroke-dasharray:none;stroke-dashoffset:0;stroke-opacity:1;marker:none;enable-background:accumulate"
         id="rect4249"
         width="10.629921"
         height="10.629921"
         x="-597.60004"
         y="706.68188" />
      <rect
         y="706.68188"
         x="-253.89923"
         height="10.629921"
         width="10.629921"
         id="rect4251"
         style="color:#000000;display:inline;overflow:visible;visibility:visible;opacity:0.97000002;fill:#808000;fill-opacity:1;fill-rule:nonzero;stroke:none;stroke-width:1;stroke-linecap:square;stroke-linejoin:round;stroke-miterlimit:4;stroke-dasharray:none;stroke-dashoffset:0;stroke-opacity:1;marker:none;enable-background:accumulate" />
    </g>
    <rect
       ry="2.0611925"
       y="467.11615"
       x="-916.42206"
       height="21.259842"
       width="230.31496"
       id="rect4377"
       style="color:#000000;display:inline;overflow:visible;visibility:visible;opacity:1;fill:#ff5555;fill-opacity:1;fill-rule:nonzero;stroke:none;stroke-width:0.99999994;stroke-linecap:square;stroke-linejoin:round;stroke-miterlimit:4;stroke-dasharray:none;stroke-dashoffset:0;stroke-opacity:1;marker:none;enable-background:accumulate" />
    <path
       style="color:#000000;display:inline;overflow:visible;visibility:visible;opacity:1;fill:none;fill-opacity:1;fill-rule:nonzero;stroke:#000000;stroke-width:0.106;stroke-linecap:square;stroke-linejoin:round;stroke-miterlimit:5.5999999;stroke-dasharray:none;stroke-dashoffset:0;stroke-opacity:1;marker:none;enable-background:accumulate"
       d="M 603.65625,14.778285 C 507.95226,14.878333 429.62736,90.966942 426.75586,186.62789 l 31.62305,0 0,10.63086 -21.25782,0 -10.44336,0 c 2.87244,95.69123 81.2442,171.79175 176.97852,171.84961 95.70399,-0.10005 174.02889,-76.18866 176.90039,-171.84961 l -10.36523,0 -21.25977,0 0,-10.63086 31.70117,0 C 777.76039,90.937422 699.38981,14.837203 603.65625,14.778285 Z M 484.33203,100.55563 c 5.86995,5.6e-4 10.62835,4.75895 10.62891,10.6289 5.2e-4,5.87072 -4.75819,10.6303 -10.62891,10.63086 -5.87148,5.2e-4 -10.63138,-4.75938 -10.63086,-10.63086 5.6e-4,-5.87071 4.76015,-10.62942 10.63086,-10.6289 z m 240.2793,0 c 5.86995,5.6e-4 10.62834,4.75895 10.6289,10.6289 5.2e-4,5.87071 -4.75819,10.6303 -10.6289,10.63086 -5.87148,5.2e-4 -10.63138,-4.75938 -10.63086,-10.63086 5.6e-4,-5.87071 4.76015,-10.62942 10.63086,-10.6289 z m -240.2793,116.92773 c 5.86995,5.6e-4 10.62835,4.75896 10.62891,10.62891 5.2e-4,5.87072 -4.75819,10.6303 -10.62891,10.63086 -5.87148,5.2e-4 -10.63138,-4.75938 -10.63086,-10.63086 5.6e-4,-5.87072 4.76014,-10.62943 10.63086,-10.62891 z m 240.2793,0 c 5.86995,5.6e-4 10.62834,4.75896 10.6289,10.62891 5.2e-4,5.87071 -4.75819,10.6303 -10.6289,10.63086 -5.87148,5.2e-4 -10.63138,-4.75938 -10.63086,-10.63086 5.6e-4,-5.87072 4.76014,-10.62943 10.63086,-10.62891 z"
       id="circle4325"
       inkscape:connector-curvature="0"
       sodipodi:nodetypes="cccccccccccccssssssssssssssssssss" />
    <g
       style="font-style:normal;font-variant:normal;font-weight:bold;font-stretch:normal;font-size:25.40620995px;line-height:125%;font-family:Arial;-inkscape-font-specification:'Arial Bold';text-align:end;letter-spacing:0px;word-spacing:0px;text-anchor:end;fill:#000000;fill-opacity:1;stroke:none;stroke-width:1px;stroke-linecap:butt;stroke-linejoin:miter;stroke-opacity:1;opacity:1"
       id="text4528"
       transform="translate(40,0)">
      <path
         d="m 422.74546,268.67715 -3.48591,0 0,-13.13729 q -1.91043,1.78638 -4.50315,2.64235 l 0,-3.16337 q 1.36459,-0.4466 2.96488,-1.68714 1.6003,-1.25294 2.19575,-2.91526 l 2.82843,0 0,18.26071 z"
         id="path4432"
         inkscape:connector-curvature="0"
         style="" />
    </g>
    <path
       style="color:#000000;display:inline;overflow:visible;visibility:visible;opacity:1;fill:none;fill-opacity:1;fill-rule:nonzero;stroke:#000000;stroke-width:0.106;stroke-linecap:square;stroke-linejoin:round;stroke-miterlimit:5.5999999;stroke-dasharray:none;stroke-dashoffset:0;stroke-opacity:1;marker:none;enable-background:accumulate"
       d="M 963.84766,14.778285 C 868.14367,14.878333 789.81877,90.966942 786.94727,186.62789 l 10.36523,0 21.25781,0 0,10.62891 -21.25781,0 0,0.002 -10.44336,0 c 2.87244,95.69123 81.2442,171.79175 176.97852,171.84961 95.70324,-0.1011 174.02694,-76.18941 176.89844,-171.84961 l -10.3633,0 0,-0.002 -21.2617,0 0,-10.62891 21.2617,0 10.4414,0 C 1137.9518,90.937432 1059.5812,14.837214 963.84766,14.778285 Z m -118.11914,84.005857 237.86718,0 c 7.7233,0 13.9414,6.216158 13.9414,13.939458 l 0,113.85156 c 0,7.7233 -6.2181,13.93945 -13.9414,13.93945 l -237.86718,0 c -7.72325,0 -13.93946,-6.21615 -13.93946,-13.93945 l 0,-113.85156 c 0,-7.7232 6.21621,-13.939458 13.93946,-13.939458 z"
       id="circle4343"
       inkscape:connector-curvature="0"
       sodipodi:nodetypes="cccccccccccccccccsssssssss" />
    <g
       style="font-style:normal;font-variant:normal;font-weight:bold;font-stretch:normal;font-size:25.40620995px;line-height:125%;font-family:Arial;-inkscape-font-specification:'Arial Bold';text-align:end;letter-spacing:0px;word-spacing:0px;text-anchor:end;fill:#000000;fill-opacity:1;stroke:none;stroke-width:1px;stroke-linecap:butt;stroke-linejoin:miter;stroke-opacity:1;opacity:1"
       id="text4532"
       transform="translate(40,0)">
      <path
         d="m 811.75354,265.43935 0,3.2378 -12.21929,0 q 0.19848,-1.83599 1.19091,-3.4735 0.99243,-1.64992 3.9201,-4.36669 2.35702,-2.19575 2.89045,-2.97729 0.71952,-1.07927 0.71952,-2.13373 0,-1.1661 -0.63268,-1.78637 -0.62027,-0.63268 -1.72435,-0.63268 -1.09167,0 -1.73675,0.65749 -0.64508,0.65748 -0.74432,2.18334 l -3.47351,-0.34735 q 0.31014,-2.87804 1.94765,-4.13099 1.63751,-1.25294 4.09377,-1.25294 2.69197,0 4.23024,1.45143 1.53826,1.45143 1.53826,3.60996 0,1.22814 -0.44659,2.34462 -0.43419,1.10408 -1.3894,2.31981 -0.63268,0.80635 -2.28259,2.3198 -1.64992,1.51346 -2.09651,2.00967 -0.43419,0.49622 -0.70711,0.96762 l 6.9222,0 z"
         id="path4429"
         inkscape:connector-curvature="0"
         style="" />
    </g>
    <path
       style="color:#000000;display:inline;overflow:visible;visibility:visible;opacity:1;fill:none;fill-opacity:1;fill-rule:nonzero;stroke:#000000;stroke-width:0.106;stroke-linecap:square;stroke-linejoin:round;stroke-miterlimit:5.5999999;stroke-dasharray:none;stroke-dashoffset:0;stroke-opacity:1;marker:none;enable-background:accumulate"
       d="m 1326.0391,14.776332 c -18.3766,0.07222 -36.63,3.003109 -54.1055,8.6875 l 0,75.31836 173.8535,0 c 7.7233,0 13.9414,6.216148 13.9414,13.939448 l 0,113.85156 c 0,7.7233 -6.2181,13.93946 -13.9414,13.93946 l -237.8672,0 c -7.7232,0 -13.9394,-6.21615 -13.9394,-13.93946 l 0,-113.85156 c 0,-7.7233 8.2853,-8.67839 13.9394,-13.939448 l 21.4942,0 0,-55.275391 c -48.5713,31.692003 -78.5557,85.150459 -80.2754,143.121089 l 10.3652,0 21.2578,0 0,10.62891 -21.2578,0 -10.4434,0 c 2.8714,95.69203 81.2435,171.79371 176.9786,171.85156 95.7039,-0.10115 174.028,-76.19061 176.8984,-171.85156 l -10.3633,0 -21.2617,0 0,-10.62891 21.2617,0 10.4414,0 C 1500.1442,90.936682 1421.7734,14.835315 1326.0391,14.776332 Z"
       id="circle4353"
       inkscape:connector-curvature="0"
       sodipodi:nodetypes="cccsssssssscccccccccccccccc" />
    <g
       style="font-style:normal;font-variant:normal;font-weight:bold;font-stretch:normal;font-size:25.40620995px;line-height:125%;font-family:Arial;-inkscape-font-specification:'Arial Bold';text-align:end;letter-spacing:0px;word-spacing:0px;text-anchor:end;fill:#000000;fill-opacity:1;stroke:none;stroke-width:1px;stroke-linecap:butt;stroke-linejoin:miter;stroke-opacity:1;opacity:1"
       id="text4536"
       transform="translate(40,0)">
      <path
         d="m 1168.4303,263.54131 3.3742,-0.40937 q 0.1613,1.29015 0.8684,1.97245 0.7071,0.6823 1.712,0.6823 1.0792,0 1.8111,-0.81876 0.7444,-0.81875 0.7444,-2.20816 0,-1.31497 -0.7071,-2.0841 -0.7072,-0.76913 -1.7244,-0.76913 -0.6699,0 -1.6003,0.26051 l 0.3846,-2.84083 q 1.4142,0.0372 2.1585,-0.60786 0.7443,-0.65749 0.7443,-1.73676 0,-0.91799 -0.5458,-1.46383 -0.5458,-0.54584 -1.4514,-0.54584 -0.8932,0 -1.5259,0.62027 -0.6327,0.62027 -0.7691,1.81119 l -3.213,-0.54584 q 0.3349,-1.64992 1.0048,-2.62994 0.6823,-0.99243 1.8856,-1.55067 1.2158,-0.57065 2.7168,-0.57065 2.5679,0 4.1186,1.63751 1.2778,1.33978 1.2778,3.02691 0,2.39424 -2.6176,3.82086 1.5631,0.33494 2.4935,1.50105 0.9428,1.1661 0.9428,2.81602 0,2.39424 -1.7491,4.08137 -1.7492,1.68713 -4.3543,1.68713 -2.4687,0 -4.0938,-1.41421 -1.6251,-1.42662 -1.8856,-3.72162 z"
         id="path4426"
         inkscape:connector-curvature="0"
         style="" />
    </g>
    <path
       inkscape:connector-curvature="0"
       id="path4518"
       d="m 756.24986,442.13697 0,99.1066 31.8909,0 0,-99.1066 z"
       style="color:#000000;display:inline;overflow:visible;visibility:visible;opacity:1;fill:none;fill-opacity:1;fill-rule:nonzero;stroke:#000000;stroke-width:0.10600002;stroke-linecap:square;stroke-linejoin:round;stroke-miterlimit:5.5999999;stroke-dasharray:none;stroke-dashoffset:0;stroke-opacity:1;marker:none;enable-background:accumulate"
       sodipodi:nodetypes="ccccc" />
    <path
       style="color:#000000;display:inline;overflow:visible;visibility:visible;opacity:1;fill:none;fill-opacity:1;fill-rule:nonzero;stroke:#000000;stroke-width:0.106;stroke-linecap:square;stroke-linejoin:round;stroke-miterlimit:5.5999999;stroke-dasharray:none;stroke-dashoffset:0;stroke-opacity:1;marker:none;enable-background:accumulate"
       d="m 1688.2305,14.776332 c -18.3766,0.07222 -36.63,3.003109 -54.1055,8.6875 l 0,75.31836 173.8535,0 c 7.7233,0 13.9414,6.216148 13.9414,13.939448 l 0,113.85156 c 0,7.7233 -6.2181,13.93946 -13.9414,13.93946 l -237.8672,0 c -7.7232,0 -13.9394,-6.21615 -13.9394,-13.93946 l 0,-113.85156 c 0,-7.7233 8.2853,-8.67839 13.9394,-13.939448 l 21.4942,0 0,-55.275391 c -48.5713,31.692003 -78.5557,85.150459 -80.2754,143.121089 l 10.3652,0 21.2578,0 0,10.62891 -21.2578,0 -10.4433,0 c 2.8714,95.69199 81.2435,171.79366 176.9785,171.85156 95.7039,-0.10115 174.028,-76.19061 176.8984,-171.85156 l -10.3633,0 -21.2597,0 0,-10.62891 21.2597,0 10.4414,0 C 1862.3356,90.936682 1783.9648,14.835315 1688.2305,14.776332 Z"
       id="path4583"
       inkscape:connector-curvature="0"
       sodipodi:nodetypes="cccsssssssscccccccccccccccc" />
    <g
       style="font-style:normal;font-variant:normal;font-weight:bold;font-stretch:normal;font-size:25.40620995px;line-height:125%;font-family:Arial;-inkscape-font-specification:'Arial Bold';text-align:end;letter-spacing:0px;word-spacing:0px;text-anchor:end;fill:#000000;fill-opacity:1;stroke:none;stroke-width:1px;stroke-linecap:butt;stroke-linejoin:miter;stroke-opacity:1;opacity:1"
       id="text4585"
       transform="translate(40,0)">
      <path
         d="m 1537.5813,268.67715 0,-3.65958 -7.4432,0 0,-3.05172 7.8898,-11.54941 2.9277,0 0,11.537 2.2578,0 0,3.06413 -2.2578,0 0,3.65958 -3.3743,0 z m 0,-6.72371 0,-6.21509 -4.1806,6.21509 4.1806,0 z"
         id="path4423"
         inkscape:connector-curvature="0"
         style="" />
    </g>
    <path
       style="color:#000000;display:inline;overflow:visible;visibility:visible;opacity:1;fill:none;fill-opacity:1;fill-rule:nonzero;stroke:#000000;stroke-width:0.106;stroke-linecap:square;stroke-linejoin:round;stroke-miterlimit:5.5999999;stroke-dasharray:none;stroke-dashoffset:0;stroke-opacity:1;marker:none;enable-background:accumulate"
       d="m 427.46484,335.65914 c -18.37657,0.0722 -36.63002,3.00311 -54.10546,8.6875 l 0,75.31836 173.85351,0 c 7.72325,0 13.94141,6.21615 13.94141,13.93946 l 0,113.85156 c 0,7.7233 -6.21816,13.93945 -13.94141,13.93945 l -237.86719,0 c -7.72325,0 -13.93945,-6.21615 -13.93945,-13.93945 l 0,-113.85156 c 0,-7.7233 8.2853,-8.67836 13.93945,-13.93946 l 21.49414,0 0,-55.27539 c -48.57072,31.69162 -78.55503,85.14921 -80.27539,143.11914 l 31.62305,0 0,10.63086 -21.25781,0 -10.44336,0 c 2.87141,95.69199 81.24346,171.79366 176.97851,171.85156 95.70396,-0.10113 174.028,-76.1906 176.89844,-171.85156 l -10.36328,0 -21.26172,0 0,-10.63086 31.70313,0 C 601.56899,411.81827 523.1984,335.71805 427.46484,335.65914 Z"
       id="path4591"
       inkscape:connector-curvature="0"
       sodipodi:nodetypes="cccsssssssscccccccccccccc" />
    <g
       style="font-style:normal;font-variant:normal;font-weight:bold;font-stretch:normal;font-size:25.40620995px;line-height:125%;font-family:Arial;-inkscape-font-specification:'Arial Bold';text-align:end;letter-spacing:0px;word-spacing:0px;text-anchor:end;fill:#000000;fill-opacity:1;stroke:none;stroke-width:1px;stroke-linecap:butt;stroke-linejoin:miter;stroke-opacity:1;opacity:1"
       id="text4593"
       transform="translate(40,-12)">
      <path
         d="m 246.02942,605.84405 3.47351,-0.35976 q 0.14886,1.17851 0.88078,1.87321 0.73192,0.6823 1.68713,0.6823 1.09168,0 1.8484,-0.88078 0.75673,-0.89319 0.75673,-2.67956 0,-1.67473 -0.75673,-2.50589 -0.74432,-0.84357 -1.94764,-0.84357 -1.50105,0 -2.69197,1.32738 l -2.82842,-0.40938 1.78637,-9.4653 9.2172,0 0,3.26261 -6.57485,0 -0.54584,3.08894 q 1.1661,-0.58305 2.38183,-0.58305 2.31981,0 3.93251,1.68713 1.61269,1.68713 1.61269,4.3791 0,2.24537 -1.30256,4.00694 -1.77397,2.40664 -4.92493,2.40664 -2.5183,0 -4.10618,-1.35219 -1.58789,-1.35218 -1.89803,-3.63477 z"
         id="path4420"
         inkscape:connector-curvature="0"
         style="" />
    </g>
    <path
       sodipodi:nodetypes="cccccccccccssssssssssssssssssss"
       inkscape:connector-curvature="0"
       id="path4607"
       d="M 237.46217,14.77761 C 141.75894,14.87872 63.43521,90.96703 60.56374,186.62722 l 31.62496,0 0,10.63086 -31.70309,0 c 2.87242,95.69047 81.243,171.79069 176.97656,171.84961 95.73431,-0.0579 174.10607,-76.15838 176.97851,-171.84961 l -31.70079,0 0,-10.63086 31.62267,0 C 411.49106,90.96627 333.16616,14.87766 237.46217,14.77761 Z m -119.32226,85.77734 c 5.87072,5.6e-4 10.62943,4.76014 10.62891,10.63086 -5.6e-4,5.86995 -4.75896,10.62835 -10.62891,10.62891 -5.87072,5.2e-4 -10.6303,-4.75819 -10.63086,-10.62891 -5.2e-4,-5.87148 4.75938,-10.63138 10.63086,-10.63086 z m 240.27929,0 c 5.87071,5.6e-4 10.62942,4.76015 10.6289,10.63086 -5.6e-4,5.86995 -4.75895,10.62835 -10.6289,10.62891 -5.87072,5.2e-4 -10.6303,-4.75819 -10.63086,-10.62891 -5.2e-4,-5.87148 4.75938,-10.63138 10.63086,-10.63086 z M 118.13991,217.48269 c 5.87072,5.6e-4 10.62943,4.76014 10.62891,10.63086 -5.6e-4,5.86995 -4.75896,10.62834 -10.62891,10.6289 -5.87071,5.2e-4 -10.6303,-4.75819 -10.63086,-10.6289 -5.2e-4,-5.87148 4.75938,-10.63138 10.63086,-10.63086 z m 240.27929,0 c 5.87071,5.6e-4 10.62942,4.76015 10.6289,10.63086 -5.6e-4,5.86995 -4.75895,10.62834 -10.6289,10.6289 -5.87071,5.2e-4 -10.6303,-4.75819 -10.63086,-10.6289 -5.2e-4,-5.87148 4.75938,-10.63138 10.63086,-10.63086 z"
       style="color:#000000;display:inline;overflow:visible;visibility:visible;opacity:1;fill:none;fill-opacity:1;fill-rule:nonzero;stroke:#000000;stroke-width:0.106;stroke-linecap:square;stroke-linejoin:round;stroke-miterlimit:5.5999999;stroke-dasharray:none;stroke-dashoffset:0;stroke-opacity:1;marker:none;enable-background:accumulate" />
    <g
       style="font-style:normal;font-variant:normal;font-weight:bold;font-stretch:normal;font-size:25.40620995px;line-height:125%;font-family:Arial;-inkscape-font-specification:'Arial Bold';text-align:end;letter-spacing:0px;word-spacing:0px;text-anchor:end;fill:#000000;fill-opacity:1;stroke:none;stroke-width:1px;stroke-linecap:butt;stroke-linejoin:miter;stroke-opacity:1;opacity:1"
       id="text4609"
       transform="translate(40,0)">
      <path
         d="m 55.035351,250.10629 q 2.642345,0 4.13099,1.88562 1.773969,2.23297 1.773969,7.40601 0,5.16063 -1.786375,7.41841 -1.476239,1.86081 -4.118584,1.86081 -2.654751,0 -4.279855,-2.03448 -1.625104,-2.04689 -1.625104,-7.28196 0,-5.13582 1.786374,-7.3936 1.47624,-1.86081 4.118585,-1.86081 z m 0,2.89045 q -0.632675,0 -1.12889,0.40938 -0.496215,0.39697 -0.769133,1.43902 -0.359756,1.35219 -0.359756,4.55278 0,3.20058 0.32254,4.40391 0.32254,1.19091 0.806349,1.58788 0.496215,0.39698 1.12889,0.39698 0.632674,0 1.128889,-0.39698 0.496215,-0.40937 0.769133,-1.45142 0.359756,-1.33979 0.359756,-4.54037 0,-3.20059 -0.32254,-4.39151 -0.322539,-1.20332 -0.818755,-1.60029 -0.483809,-0.40938 -1.116483,-0.40938 z"
         id="path4435"
         inkscape:connector-curvature="0"
         style="" />
    </g>
    <polygon
       style="fill:none;stroke:#020203;stroke-miterlimit:10;opacity:1"
       transform="translate(-646.20621,206.31216)"
       onclick="draw_circ(this)"
       class="st0"
       points="256.8,206.8 210.8,136.2 231.2,136.2 143,0.9 54.9,136.2 75.3,136.2 29.4,206.8 49.6,206.8 0.9,281.5 50.9,281.5 50.9,295.7 235.1,295.7 235.1,281.5 285.1,281.5 236.3,206.8 "
       id="polygon5101" />
    <path
       sodipodi:nodetypes="ccccc"
       style="color:#000000;display:inline;overflow:visible;visibility:visible;opacity:1;fill:none;fill-opacity:1;fill-rule:nonzero;stroke:#000000;stroke-width:0.10600002;stroke-linecap:square;stroke-linejoin:round;stroke-miterlimit:5.5999999;stroke-dasharray:none;stroke-dashoffset:0;stroke-opacity:1;marker:none;enable-background:accumulate"
       d="m 816.24986,442.13697 0,99.1066 31.8909,0 0,-99.1066 z"
       id="path5288"
       inkscape:connector-curvature="0" />
    <g
       id="g4511"
       transform="matrix(-1,0,0,-1,1584.5848,777.25814)"
       style="opacity:1;fill:#000000;fill-opacity:1">
      <path
         id="path4327"
         style="fill:#000000;fill-opacity:1;fill-rule:nonzero;stroke:none"
         d="m 758.11056,386.27548 c -1.46714,0 -1.98247,-1.43941 -1.98247,-2.66173 0,-1.22256 0.51533,-2.66193 1.98247,-2.66193 1.46693,0 1.98286,1.43937 1.98286,2.66193 0,1.22232 -0.51593,2.66173 -1.98286,2.66173 z m -0.1088,2.85221 c -1.28999,0 -1.81957,-0.84221 -2.36326,-0.84221 -0.37922,0 -0.50168,0.31238 -0.50168,0.55695 0,0.61092 1.53417,1.31731 2.77033,1.31731 1.95516,0 3.25856,-1.3036 3.25856,-3.4498 l 0,-6.20628 c 0,-0.42099 -0.32507,-0.58389 -0.55638,-0.58389 -0.32662,0 -0.63842,0.1629 -0.63842,0.58389 l 0,0.32624 -0.027,0 c -0.31239,-0.43485 -1.0596,-0.91013 -1.83342,-0.91013 -2.03716,0 -3.17786,1.77888 -3.17786,3.69398 0,1.91505 1.1407,3.69378 3.17786,3.69378 0.81499,0 1.46693,-0.40732 1.83342,-1.03205 l 0.027,0 0,0.62473 c 0,1.03209 -0.44777,2.22748 -1.96915,2.22748 m -7.4442,-2.85221 c -1.46654,0 -1.98252,-1.43941 -1.98252,-2.66173 0,-1.22256 0.51598,-2.66193 1.98252,-2.66193 1.46694,0 1.98247,1.43937 1.98247,2.66193 0,1.22232 -0.51553,2.66173 -1.98247,2.66173 z m -0.10883,2.85221 c -1.29067,0 -1.81953,-0.84221 -2.36264,-0.84221 -0.38073,0 -0.50344,0.31238 -0.50344,0.55695 0,0.61092 1.5353,1.31731 2.77073,1.31731 1.95632,0 3.25992,-1.3036 3.25992,-3.4498 l 0,-6.20628 c 0,-0.42099 -0.32624,-0.58389 -0.55787,-0.58389 -0.32454,0 -0.63693,0.1629 -0.63693,0.58389 l 0,0.32624 -0.0276,0 c -0.31238,-0.43485 -1.05961,-0.91013 -1.83343,-0.91013 -2.03681,0 -3.17786,1.77888 -3.17786,3.69398 0,1.91505 1.14105,3.69378 3.17786,3.69378 0.81465,0 1.46694,-0.40732 1.83343,-1.03205 l 0.0276,0 0,0.62473 c 0,1.03209 -0.44908,2.22748 -1.96977,2.22748 m -4.93244,-1.82016 c 0.36649,0 0.59773,-0.24398 0.59773,-0.63804 l 0,-4.00675 c 0,-2.03658 -1.39912,-2.74297 -2.51283,-2.74297 -1.04595,0 -1.684,0.46144 -2.21358,1.22252 -0.5433,-0.92442 -1.27608,-1.22252 -1.98363,-1.22252 -1.0862,0 -1.53413,0.51554 -1.81919,0.88301 l -0.0273,-0.0276 0,-0.2174 c 0,-0.39405 -0.23072,-0.63804 -0.59721,-0.63804 -0.36649,0 -0.59778,0.24399 -0.59778,0.63804 l 0,6.11167 c 0,0.39406 0.2313,0.63805 0.59778,0.63805 0.36649,0 0.59721,-0.24399 0.59721,-0.63805 l 0,-4.04699 c 0,-1.03263 0.57042,-1.67067 1.53411,-1.67067 0.97853,0 1.54881,0.63804 1.54881,1.67067 l 0,4.04699 c 0,0.39406 0.23072,0.63805 0.59813,0.63805 0.36653,0 0.59725,-0.24399 0.59725,-0.63805 l 0,-4.04699 c 0,-1.03263 0.57062,-1.67067 1.53411,-1.67067 0.97854,0 1.54881,0.63804 1.54881,1.67067 l 0,4.04699 c 0,0.39406 0.2311,0.63805 0.59759,0.63805 m -13.67517,20.33927 c -0.28086,0 -0.53645,-0.16104 -0.65779,-0.41454 -0.12097,-0.25294 -0.0864,-0.55335 0.0899,-0.77191 l 6.25356,-7.76948 c 0.13845,-0.17185 0.34732,-0.27192 0.56817,-0.27192 l 26.86417,0 0,-23.34927 -32.38875,0 0,19.69438 26.16217,0 c 0.23659,-0.36231 0.64372,-0.60253 1.10801,-0.60253 0.73182,0 1.32527,0.59341 1.32527,1.32546 0,0.73108 -0.59345,1.32508 -1.32527,1.32508 -0.45919,0 -0.86343,-0.2345 -1.101,-0.58963 l -26.89835,0 c -0.40277,0 -0.7292,-0.32681 -0.7292,-0.72919 l 0,-21.15276 c 0,-0.40275 0.32643,-0.72919 0.7292,-0.72919 l 33.84712,0 c 0.40275,0 0.72919,0.32644 0.72919,0.72919 l 0,24.80763 c 0,0.40257 -0.32644,0.7292 -0.72919,0.7292 l -27.24436,0 -5.07983,6.31109 30.53178,0 -2.88903,-2.81668 -17.93636,0 c -0.23698,0.35891 -0.64283,0.59684 -1.1048,0.59684 -0.73244,0 -1.32527,-0.59379 -1.32527,-1.32546 0,-0.73206 0.59283,-1.32508 1.32527,-1.32508 0.46163,0 0.86724,0.237 1.10423,0.59533 l 18.23354,0 c 0.19032,0 0.37294,0.0747 0.50929,0.20697 l 4.38464,4.27507 c 0.21214,0.20698 0.27781,0.52221 0.16634,0.79698 -0.11185,0.27497 -0.37886,0.45442 -0.67544,0.45442 l -33.84712,0 z"
         inkscape:connector-curvature="0" />
      <path
         style="fill:#000000;stroke:none;fill-opacity:1"
         d="m 834.3256,410.10183 c -3.59312,-0.18121 -6.93246,-1.286 -9.93609,-3.28725 -0.39445,-0.2628 -1.15646,-0.83088 -1.5263,-1.13783 -2.15165,-1.78592 -3.84961,-3.92685 -5.07281,-6.39636 -1.19034,-2.40315 -1.84611,-4.91499 -1.99445,-7.63943 -0.0306,-0.56206 -0.013,-2.02196 0.0304,-2.52962 0.18884,-2.2048 0.66183,-4.14179 1.48839,-6.0951 0.30074,-0.71071 0.81087,-1.73609 0.85784,-1.72429 0.013,0.005 0.38898,0.24701 0.83548,0.54167 l 0.81181,0.53573 0.005,8.56812 0.005,8.56808 0.48518,0.2777 c 3.38412,1.93694 4.27932,2.44816 4.28691,2.44816 0.005,0 0.009,-0.77786 0.009,-1.72864 l 0,-1.72858 -0.123,-0.14642 c -0.72801,-0.86658 -1.36636,-2.00391 -1.7478,-3.1139 -0.64946,-1.89003 -0.61886,-3.77665 0.0827,-5.10477 0.19635,-0.37163 0.38775,-0.62476 0.69886,-0.92426 1.10047,-1.05944 2.78723,-1.18359 4.51573,-0.33245 2.75202,1.35513 4.86024,4.79128 4.86162,7.92397 9.1e-4,1.89415 -0.80623,3.39383 -2.13811,3.97298 l -0.1561,0.0679 -0.005,2.33239 -0.005,2.33237 1.9964,1.16375 1.99639,1.16379 0.006,0.37131 c 0.004,0.2042 2.4e-4,0.65558 -0.008,1.00303 l -0.0139,0.63175 -0.0634,-0.004 c -0.0349,-0.003 -0.118,-0.006 -0.18466,-0.01 z m 1.5016,-0.95012 c -0.004,-0.62367 0.001,-0.975 0.0146,-0.99009 0.0156,-0.0179 8.61934,-5.04937 14.10207,-8.24668 l 0.75963,-0.44298 0.0136,-1.84804 c 0.0146,-1.988 0.018,-4.10553 0.006,-4.10553 -0.0157,0 -2.67334,1.54071 -2.6959,1.56293 -0.0134,0.0132 -0.10312,0.25598 -0.19927,0.53951 -0.40947,1.20677 -0.59327,1.63599 -0.93263,2.17776 -0.79096,1.26279 -1.77379,2.23346 -2.92287,2.8868 -0.622,0.35366 -1.34344,0.60429 -1.9723,0.68511 -0.31212,0.0403 -0.81636,0.0408 -1.09485,0 -1.37414,-0.19455 -2.37105,-1.08444 -2.79644,-2.49621 -0.17016,-0.56471 -0.22439,-0.97624 -0.22505,-1.70821 -4.5e-4,-0.5296 0.0129,-0.73973 0.0717,-1.13211 0.24011,-1.59822 0.92575,-3.22676 1.915,-4.54857 0.38214,-0.51059 0.96297,-1.13325 1.38846,-1.48843 0.83083,-0.69361 1.65681,-1.14257 2.52254,-1.37112 0.43512,-0.11488 0.569,-0.13083 1.0961,-0.13083 0.54234,4e-5 0.70505,0.0232 1.11875,0.16135 0.36819,0.12275 0.5579,0.23619 0.96347,0.57641 0.36448,0.30572 0.51729,0.4231 0.55083,0.4231 0.01,0 0.47219,-0.23732 1.02737,-0.52741 0.55519,-0.29007 1.27094,-0.66394 1.59058,-0.83074 l 0.58112,-0.30333 0.005,-2.85344 0.005,-2.85349 0.83789,-0.46011 c 0.46083,-0.25306 0.84426,-0.45327 0.85209,-0.44491 0.0296,0.032 0.38592,0.73599 0.52421,1.03617 0.31604,0.68603 0.56836,1.3171 0.79216,1.98114 1.02983,3.05575 1.28404,6.25363 0.75128,9.45089 -0.40258,2.41612 -1.28031,4.78435 -2.5512,6.88351 -1.7521,2.89399 -4.24426,5.28973 -7.21544,6.93621 -1.94575,1.07822 -4.05016,1.81497 -6.22967,2.18094 -0.77647,0.13039 -1.4796,0.20424 -2.41218,0.25338 l -0.23695,0.0125 -0.005,-0.96673 z m -1.39041,-23.20711 c -0.0389,-0.005 -0.18447,-0.0165 -0.32345,-0.0287 -1.84096,-0.16127 -3.62914,-0.8317 -4.76824,-1.78779 -0.8659,-0.72675 -1.3371,-1.54561 -1.41757,-2.46348 -0.0196,-0.22426 -0.001,-0.95173 0.032,-1.25805 l 0.0134,-0.12325 -0.0885,-0.0503 c -0.0486,-0.0279 -0.21127,-0.12312 -0.36139,-0.21228 -2.01757,-1.19753 -2.46576,-1.46205 -2.47681,-1.46205 -0.01,0 -3.11846,1.89822 -4.40049,2.68732 -0.20242,0.12463 -0.24237,0.1423 -0.27807,0.12325 -0.0362,-0.0192 -1.63945,-1.02857 -1.6542,-1.04124 -0.004,-0.005 0.14044,-0.2243 0.3189,-0.49253 1.1077,-1.66495 2.40994,-3.10197 3.932,-4.33898 3.18905,-2.59175 7.12995,-4.10939 11.26022,-4.33625 0.46583,-0.0256 1.63735,-0.026 2.08224,0 2.99579,0.17036 5.82954,0.99179 8.44178,2.44689 2.80977,1.56517 5.21298,3.82817 6.93222,6.52779 0.19786,0.31075 0.2078,0.33136 0.17222,0.35737 -0.0208,0.0151 -0.40336,0.22791 -0.85017,0.47269 l -0.8124,0.44514 -0.85685,-0.49798 c -0.47127,-0.27385 -1.13432,-0.65934 -1.47345,-0.85657 -0.65054,-0.37839 -2.38382,-1.38594 -4.53845,-2.63819 -0.7116,-0.41359 -2.27176,-1.32063 -3.46702,-2.01565 -1.19525,-0.69499 -2.34605,-1.36386 -2.5573,-1.48638 -0.21125,-0.1225 -0.74759,-0.43415 -1.19184,-0.69255 -0.44426,-0.25845 -0.81876,-0.47411 -0.83224,-0.47927 -0.0135,-0.005 -0.83261,0.45161 -1.82031,1.01504 -0.98771,0.56343 -2.1255,1.2123 -2.52843,1.4419 -0.40293,0.2296 -0.73243,0.422 -0.73223,0.42757 2e-4,0.005 0.25255,0.1705 0.56076,0.36655 0.30822,0.19601 0.7196,0.45875 0.91417,0.58383 0.19458,0.12501 0.42239,0.27055 0.50625,0.32335 l 0.15248,0.096 0.25185,-0.0484 c 1.02052,-0.19582 1.76752,-0.27605 2.56655,-0.27574 3.09772,0 5.54651,1.31442 6.31566,3.38657 0.16441,0.44293 0.22354,0.79312 0.22274,1.31921 -4.6e-4,0.37007 -0.005,0.42474 -0.057,0.64534 -0.19699,0.84231 -0.70333,1.61532 -1.48631,2.26916 -1.12314,0.93785 -2.63049,1.51206 -4.31575,1.64399 -0.23548,0.0182 -1.21247,0.0237 -1.3869,0.007 z"
         id="path4401"
         inkscape:connector-curvature="0" />
      <path
         style="fill:#000000;fill-opacity:1"
         d="m 792.2567,409.8931 c 0.0435,-0.32282 -0.0312,-0.84165 -0.25882,-1.79829 -0.0994,-0.4176 -0.21066,-0.95198 -0.24732,-1.18748 l -0.0666,-0.42821 -0.4451,0.34426 c -1.55225,1.20058 -3.39193,2.09313 -5.651,2.74165 -0.30477,0.0875 -0.59707,0.17164 -0.64956,0.18698 -0.0886,0.0259 -0.09,0.0172 -0.0191,-0.12088 0.15933,-0.31077 0.39951,-1.17345 0.47982,-1.72348 0.0549,-0.37619 0.0784,-0.83595 0.0686,-1.34229 l -0.0149,-0.77014 -0.43334,0.28196 c -1.59006,1.03464 -3.64997,1.74909 -5.3181,1.84453 l -0.57036,0.0326 0.3936,-0.52886 c 1.262,-1.69574 2.27593,-4.00601 2.03311,-4.63257 -0.0355,-0.0915 -0.0946,-0.144 -0.16211,-0.144 -0.0585,0 -0.44196,0.1745 -0.85221,0.38781 -1.5242,0.79246 -3.15169,1.3 -4.56848,1.42469 l -0.41891,0.0369 0.41439,-0.44032 c 1.27916,-1.35923 2.2077,-2.84533 2.69622,-4.31527 0.65239,-1.96293 0.66255,-3.95021 0.0326,-6.37802 -0.32003,-1.23345 -0.26431,-1.12645 -0.73649,-1.41455 -2.87049,-1.75154 -4.49211,-4.74983 -4.35429,-8.05088 0.0716,-1.71512 0.64929,-3.40217 1.64824,-4.81351 0.45058,-0.63659 1.41753,-1.60355 2.05411,-2.05412 1.01638,-0.71939 2.19129,-1.22703 3.45234,-1.4916 0.57098,-0.11975 0.78924,-0.13855 1.65689,-0.14228 l 0.99929,-0.005 0.25745,-0.38237 c 1.23778,-1.83843 3.2884,-3.2142 5.47968,-3.67638 2.13922,-0.4512 4.40657,-0.10387 6.26418,0.95949 1.60599,0.91935 2.83235,2.23411 3.63735,3.89954 l 0.27125,0.56118 0.4451,-0.09 c 1.91324,-0.38665 3.94059,-0.1297 5.68309,0.72032 2.52326,1.23086 4.29116,3.5335 4.85285,6.32068 0.101,0.50105 0.11875,0.75417 0.11875,1.68903 0,1.21632 -0.0829,1.79817 -0.39348,2.76247 -0.21406,0.66462 -0.81492,1.84878 -1.24117,2.44609 -0.4421,0.6195 -1.31224,1.50086 -1.90457,1.92909 l -0.45111,0.32614 -0.0365,0.56195 c -0.3803,5.85606 -3.45146,10.24982 -10.00056,14.30736 -1.16785,0.72355 -3.1988,1.90219 -4.05551,2.35356 -0.12338,0.065 -0.12338,0.065 -0.0892,-0.18855 z m -0.70304,-7.95699 c 0.028,-0.028 -0.005,-0.24944 -0.0805,-0.54425 -0.15259,-0.59446 -0.15954,-0.84524 -0.0312,-1.12764 0.39187,-0.8627 1.63881,-0.74357 1.89118,0.18068 0.0282,0.10337 0.0761,0.28821 0.10637,0.41065 l 0.055,0.22261 0.1601,-0.11787 c 0.18265,-0.1345 0.5827,-0.6486 0.7312,-0.93968 0.27084,-0.53091 0.33595,-1.26911 0.13813,-1.56612 -0.25303,-0.3799 -0.66099,-0.4652 -2.22684,-0.46563 -1.26113,-3.7e-4 -1.87059,-0.055 -2.61128,-0.23404 -0.28233,-0.0683 -0.52837,-0.11475 -0.54675,-0.1035 -0.0184,0.0113 -0.0499,0.1667 -0.0701,0.34524 -0.0475,0.41994 -0.18914,0.69063 -0.45254,0.86493 -0.47651,0.31533 -1.11241,0.18486 -1.42036,-0.29144 -0.15114,-0.23378 -0.15504,-0.25566 -0.1269,-0.71246 0.016,-0.2592 0.0443,-0.55677 0.063,-0.66124 0.0337,-0.18866 0.0325,-0.19011 -0.16825,-0.21379 -0.71814,-0.0847 -1.08846,0.36426 -1.08895,1.32013 -3.9e-4,0.84257 0.33395,1.57007 1.04699,2.27782 0.50435,0.50063 1.06488,0.84899 1.77377,1.10235 0.761,0.272 1.18923,0.33799 2.06171,0.31774 0.41203,-0.01 0.77036,-0.0386 0.7963,-0.0645 z m 6.50722,-2.8307 c 0.85862,-0.52158 1.58877,-1.46767 2.09807,-2.71859 0.74746,-1.83586 1.08482,-4.27481 1.00615,-7.27396 -0.0204,-0.77761 -0.053,-1.54334 -0.0726,-1.70161 l -0.0355,-0.28778 -0.34036,-0.12225 c -2.11225,-0.7582 -4.78471,-1.1771 -6.7026,-1.05061 -1.80645,0.11912 -3.42127,0.69104 -4.41513,1.56365 l -0.1701,0.14936 -0.20492,-0.40124 c -0.84309,-1.65078 -2.77094,-2.05705 -5.48009,-1.15483 -0.67141,0.2236 -1.93057,0.76405 -1.93057,0.82863 0,0.0203 0.0344,0.15308 0.0764,0.2951 0.13919,0.4706 0.3889,1.81862 0.46981,2.53607 0.25885,2.29541 0.112,4.25175 -0.47042,6.26411 -0.0279,0.0965 0.047,0.0709 0.56129,-0.1917 1.89788,-0.96904 4.10127,-1.56911 5.76156,-1.56911 1.00805,0 1.62726,0.14503 2.26735,0.5311 l 0.35215,0.21238 0.26131,-0.14222 c 0.76669,-0.41729 1.66273,-0.38065 2.60068,0.10637 1.16862,0.60675 2.35622,1.81997 3.43837,3.51254 0.21198,0.33155 0.39998,0.6487 0.41779,0.7048 0.0464,0.14628 0.15297,0.12746 0.51136,-0.0902 z m -4.29785,-7.03686 c -0.91447,-0.45699 -1.05212,-1.70029 -0.263,-2.37575 0.69403,-0.59405 1.80334,-0.36703 2.21182,0.45267 0.27042,0.54268 0.14267,1.29015 -0.29062,1.70045 -0.44163,0.41818 -1.09208,0.50551 -1.65819,0.22263 z m -7.22002,-0.13524 c -0.53928,-0.19109 -0.92026,-0.7528 -0.92026,-1.35684 0,-0.5477 0.25421,-0.98101 0.74618,-1.27191 0.20575,-0.12163 0.2921,-0.13926 0.68074,-0.13871 0.51998,7.5e-4 0.75366,0.0974 1.06275,0.43951 0.2758,0.30528 0.3663,0.54549 0.36683,0.97369 3.7e-4,0.29235 -0.0272,0.42101 -0.13647,0.63559 -0.33396,0.65623 -1.10598,0.96451 -1.79977,0.71867 z m 5.38061,-9.77301 c 0.28651,-0.19309 0.39929,-0.4138 0.49718,-0.97307 l 0.0895,-0.51121 0.32095,-0.11512 c 0.65043,-0.23328 1.34888,-0.8201 1.62493,-1.36525 0.54148,-1.06934 0.32137,-2.22364 -0.59997,-3.14628 -0.54596,-0.54672 -1.1036,-0.85822 -1.943,-1.08536 -0.46488,-0.1258 -1.56791,-0.12362 -2.03585,0.004 -1.24224,0.3387 -2.13126,1.22931 -2.3131,2.31725 -0.13073,0.78203 0.18797,1.65545 0.84837,2.32509 l 0.36003,0.36506 -0.076,0.39732 c -0.0986,0.51547 -0.096,0.77525 0.01,0.99869 0.0894,0.18833 0.43362,0.46424 0.49506,0.39676 0.0194,-0.0211 0.0857,-0.27422 0.14755,-0.56223 0.11263,-0.52479 0.18796,-0.65455 0.37982,-0.65455 0.0515,0 0.12838,0.0532 0.17101,0.11825 0.0696,0.10625 0.0645,0.17591 -0.0511,0.68751 -0.0707,0.31309 -0.12866,0.58786 -0.12866,0.61063 0,0.0396 0.64794,0.20685 0.80114,0.20685 0.0556,0 0.0896,-0.15688 0.13948,-0.64146 0.0671,-0.65311 0.13253,-0.82473 0.31423,-0.82473 0.0476,0 0.13049,0.0321 0.18414,0.0714 0.0921,0.0674 0.094,0.10575 0.0332,0.69383 -0.0354,0.34237 -0.0764,0.66372 -0.0911,0.71412 -0.0235,0.0805 0.014,0.0916 0.30944,0.0916 0.26292,0 0.37462,-0.0259 0.51282,-0.119 z m -0.0206,-2.75917 c -0.58888,-0.18747 -0.87644,-0.86794 -0.59878,-1.41692 0.2661,-0.52612 0.89094,-0.7083 1.40203,-0.40879 0.6287,0.36844 0.64076,1.33485 0.0213,1.69793 -0.24164,0.14161 -0.60443,0.19783 -0.82447,0.12778 z m -2.59289,-0.37302 c -0.56975,-0.28944 -0.7102,-1.09182 -0.27741,-1.5849 0.32673,-0.37226 1.03847,-0.39227 1.43927,-0.0405 0.29536,0.25925 0.37826,0.79771 0.18445,1.19807 -0.22962,0.47434 -0.85995,0.67441 -1.34631,0.42732 z"
         id="path4414"
         inkscape:connector-curvature="0" />
    </g>
    <path
       sodipodi:nodetypes="cccccccccccccssssssssssssssssssss"
       inkscape:connector-curvature="0"
       id="path4439"
       d="m 1342.0365,1019.9892 c 95.7039,-0.1 174.0288,-76.18864 176.9003,-171.84959 l -31.623,0 0,-10.63086 21.2578,0 10.4434,0 c -2.8725,-95.69123 -81.2442,-171.79175 -176.9785,-171.84961 -95.704,0.10005 -174.0289,76.18866 -176.9004,171.84961 l 10.3652,0 21.2598,0 0,10.63086 -31.7012,0 c 2.8724,95.69047 81.243,171.79069 176.9766,171.84959 z m 119.3242,-85.77733 c -5.87,-5.6e-4 -10.6284,-4.75895 -10.6289,-10.6289 -6e-4,-5.87072 4.7582,-10.6303 10.6289,-10.63086 5.8715,-5.2e-4 10.6314,4.75938 10.6308,10.63086 -5e-4,5.87071 -4.7601,10.62942 -10.6308,10.6289 z m -240.2793,0 c -5.87,-5.6e-4 -10.6284,-4.75895 -10.6289,-10.6289 -6e-4,-5.87071 4.7582,-10.6303 10.6289,-10.63086 5.8715,-5.2e-4 10.6314,4.75938 10.6308,10.63086 -5e-4,5.87071 -4.7601,10.62942 -10.6308,10.6289 z m 240.2793,-116.92773 c -5.87,-5.6e-4 -10.6284,-4.75896 -10.6289,-10.62891 -6e-4,-5.87072 4.7582,-10.6303 10.6289,-10.63086 5.8715,-5.2e-4 10.6314,4.75938 10.6308,10.63086 -5e-4,5.87072 -4.7601,10.62943 -10.6308,10.62891 z m -240.2793,0 c -5.87,-5.6e-4 -10.6284,-4.75896 -10.6289,-10.62891 -6e-4,-5.87071 4.7582,-10.6303 10.6289,-10.63086 5.8715,-5.2e-4 10.6314,4.75938 10.6308,10.63086 -5e-4,5.87072 -4.7601,10.62943 -10.6308,10.62891 z"
       style="color:#000000;display:inline;overflow:visible;visibility:visible;opacity:1;fill:none;fill-opacity:1;fill-rule:nonzero;stroke:#000000;stroke-width:0.106;stroke-linecap:square;stroke-linejoin:round;stroke-miterlimit:5.5999999;stroke-dasharray:none;stroke-dashoffset:0;stroke-opacity:1;marker:none;enable-background:accumulate" />
    <g
       id="g4441"
       style="font-style:normal;font-variant:normal;font-weight:bold;font-stretch:normal;font-size:25.40620995px;line-height:125%;font-family:Arial;-inkscape-font-specification:'Arial Bold';text-align:end;letter-spacing:0px;word-spacing:0px;text-anchor:end;fill:#000000;fill-opacity:1;stroke:none;stroke-width:1px;stroke-linecap:butt;stroke-linejoin:miter;stroke-opacity:1;opacity:1"
       transform="matrix(-1,0,0,-1,1905.6927,1034.7675)">
      <path
         id="path4443"
         d="m 422.74546,268.67715 -3.48591,0 0,-13.13729 q -1.91043,1.78638 -4.50315,2.64235 l 0,-3.16337 q 1.36459,-0.4466 2.96488,-1.68714 1.6003,-1.25294 2.19575,-2.91526 l 2.82843,0 0,18.26071 z"
         inkscape:connector-curvature="0"
         style="" />
    </g>
    <path
       sodipodi:nodetypes="cccccccccccccccccsssssssss"
       inkscape:connector-curvature="0"
       id="path4445"
       d="m 981.84504,1019.9892 c 95.70396,-0.1 174.02886,-76.18864 176.90036,-171.84959 l -10.3652,0 -21.2578,0 0,-10.62891 21.2578,0 0,-0.002 10.4434,0 C 1155.9511,741.81747 1077.5794,665.71695 981.84504,665.65909 886.1418,665.76019 807.8181,741.8485 804.9466,837.5087 l 10.3633,0 0,0.002 21.2617,0 0,10.62891 -21.2617,0 -10.4414,0 c 2.8724,95.69046 81.243,171.79069 176.97654,171.84959 z m 118.11916,-84.00584 -237.8672,0 c -7.7233,0 -13.9414,-6.21616 -13.9414,-13.93946 l 0,-113.85156 c 0,-7.7233 6.2181,-13.93945 13.9414,-13.93945 l 237.8672,0 c 7.7232,0 13.9394,6.21615 13.9394,13.93945 l 0,113.85156 c 0,7.7232 -6.2162,13.93946 -13.9394,13.93946 z"
       style="color:#000000;display:inline;overflow:visible;visibility:visible;opacity:1;fill:none;fill-opacity:1;fill-rule:nonzero;stroke:#000000;stroke-width:0.106;stroke-linecap:square;stroke-linejoin:round;stroke-miterlimit:5.5999999;stroke-dasharray:none;stroke-dashoffset:0;stroke-opacity:1;marker:none;enable-background:accumulate" />
    <g
       id="g4447"
       style="font-style:normal;font-variant:normal;font-weight:bold;font-stretch:normal;font-size:25.40620995px;line-height:125%;font-family:Arial;-inkscape-font-specification:'Arial Bold';text-align:end;letter-spacing:0px;word-spacing:0px;text-anchor:end;fill:#000000;fill-opacity:1;stroke:none;stroke-width:1px;stroke-linecap:butt;stroke-linejoin:miter;stroke-opacity:1;opacity:1"
       transform="matrix(-1,0,0,-1,1905.6927,1034.7675)">
      <path
         id="path4449"
         d="m 811.75354,265.43935 0,3.2378 -12.21929,0 q 0.19848,-1.83599 1.19091,-3.4735 0.99243,-1.64992 3.9201,-4.36669 2.35702,-2.19575 2.89045,-2.97729 0.71952,-1.07927 0.71952,-2.13373 0,-1.1661 -0.63268,-1.78637 -0.62027,-0.63268 -1.72435,-0.63268 -1.09167,0 -1.73675,0.65749 -0.64508,0.65748 -0.74432,2.18334 l -3.47351,-0.34735 q 0.31014,-2.87804 1.94765,-4.13099 1.63751,-1.25294 4.09377,-1.25294 2.69197,0 4.23024,1.45143 1.53826,1.45143 1.53826,3.60996 0,1.22814 -0.44659,2.34462 -0.43419,1.10408 -1.3894,2.31981 -0.63268,0.80635 -2.28259,2.3198 -1.64992,1.51346 -2.09651,2.00967 -0.43419,0.49622 -0.70711,0.96762 l 6.9222,0 z"
         inkscape:connector-curvature="0"
         style="" />
    </g>
    <path
       sodipodi:nodetypes="cccsssssssscccccccccccccccc"
       inkscape:connector-curvature="0"
       id="path4451"
       d="m 619.6536,1019.9912 c 18.3766,-0.072 36.63,-3.0031 54.1055,-8.6875 l 0,-75.31839 -173.8535,0 c -7.7233,0 -13.9414,-6.21615 -13.9414,-13.93945 l 0,-113.85156 c 0,-7.7233 6.2181,-13.93946 13.9414,-13.93946 l 237.8672,0 c 7.7232,0 13.9394,6.21615 13.9394,13.93946 l 0,113.85156 c 0,7.7233 -8.2853,8.67839 -13.9394,13.93945 l -21.4942,0 0,55.27539 c 48.5713,-31.692 78.5557,-85.15046 80.2754,-143.12109 l -10.3652,0 -21.2578,0 0,-10.62891 21.2578,0 10.4434,0 C 793.7608,741.81867 715.3887,665.71699 619.6536,665.65914 523.9497,665.76029 445.6256,741.84975 442.7552,837.5107 l 10.3633,0 21.2617,0 0,10.62891 -21.2617,0 -10.4414,0 c 2.8714,95.69121 81.2422,171.79259 176.9765,171.85159 z"
       style="color:#000000;display:inline;overflow:visible;visibility:visible;opacity:1;fill:none;fill-opacity:1;fill-rule:nonzero;stroke:#000000;stroke-width:0.106;stroke-linecap:square;stroke-linejoin:round;stroke-miterlimit:5.5999999;stroke-dasharray:none;stroke-dashoffset:0;stroke-opacity:1;marker:none;enable-background:accumulate" />
    <g
       id="g4453"
       style="font-style:normal;font-variant:normal;font-weight:bold;font-stretch:normal;font-size:25.40620995px;line-height:125%;font-family:Arial;-inkscape-font-specification:'Arial Bold';text-align:end;letter-spacing:0px;word-spacing:0px;text-anchor:end;fill:#000000;fill-opacity:1;stroke:none;stroke-width:1px;stroke-linecap:butt;stroke-linejoin:miter;stroke-opacity:1;opacity:1"
       transform="matrix(-1,0,0,-1,1905.6927,1034.7675)">
      <path
         id="path4455"
         d="m 1168.4303,263.54131 3.3742,-0.40937 q 0.1613,1.29015 0.8684,1.97245 0.7071,0.6823 1.712,0.6823 1.0792,0 1.8111,-0.81876 0.7444,-0.81875 0.7444,-2.20816 0,-1.31497 -0.7071,-2.0841 -0.7072,-0.76913 -1.7244,-0.76913 -0.6699,0 -1.6003,0.26051 l 0.3846,-2.84083 q 1.4142,0.0372 2.1585,-0.60786 0.7443,-0.65749 0.7443,-1.73676 0,-0.91799 -0.5458,-1.46383 -0.5458,-0.54584 -1.4514,-0.54584 -0.8932,0 -1.5259,0.62027 -0.6327,0.62027 -0.7691,1.81119 l -3.213,-0.54584 q 0.3349,-1.64992 1.0048,-2.62994 0.6823,-0.99243 1.8856,-1.55067 1.2158,-0.57065 2.7168,-0.57065 2.5679,0 4.1186,1.63751 1.2778,1.33978 1.2778,3.02691 0,2.39424 -2.6176,3.82086 1.5631,0.33494 2.4935,1.50105 0.9428,1.1661 0.9428,2.81602 0,2.39424 -1.7491,4.08137 -1.7492,1.68713 -4.3543,1.68713 -2.4687,0 -4.0938,-1.41421 -1.6251,-1.42662 -1.8856,-3.72162 z"
         inkscape:connector-curvature="0"
         style="" />
    </g>
    <path
       sodipodi:nodetypes="cccsssssssscccccccccccccccc"
       inkscape:connector-curvature="0"
       id="path4459"
       d="m 257.4622,1019.9912 c 18.3766,-0.072 36.63,-3.0031 54.1055,-8.6875 l 0,-75.31839 -173.8535,0 c -7.7233,0 -13.9414,-6.21615 -13.9414,-13.93945 l 0,-113.85156 c 0,-7.7233 6.2181,-13.93946 13.9414,-13.93946 l 237.8672,0 c 7.7232,0 13.9394,6.21615 13.9394,13.93946 l 0,113.85156 c 0,7.7233 -8.2853,8.67839 -13.9394,13.93945 l -21.4942,0 0,55.27539 c 48.5713,-31.692 78.5557,-85.15046 80.2754,-143.12109 l -10.3652,0 -21.2578,0 0,-10.62891 21.2578,0 10.4433,0 C 431.5693,741.81871 353.1972,665.71704 257.4622,665.65914 161.7583,665.76029 83.4342,741.84975 80.5638,837.5107 l 10.3633,0 21.2597,0 0,10.62891 -21.2597,0 -10.4414,0 c 2.8714,95.69121 81.2422,171.79259 176.9765,171.85159 z"
       style="color:#000000;display:inline;overflow:visible;visibility:visible;opacity:1;fill:none;fill-opacity:1;fill-rule:nonzero;stroke:#000000;stroke-width:0.106;stroke-linecap:square;stroke-linejoin:round;stroke-miterlimit:5.5999999;stroke-dasharray:none;stroke-dashoffset:0;stroke-opacity:1;marker:none;enable-background:accumulate" />
    <g
       id="g4461"
       style="font-style:normal;font-variant:normal;font-weight:bold;font-stretch:normal;font-size:25.40620995px;line-height:125%;font-family:Arial;-inkscape-font-specification:'Arial Bold';text-align:end;letter-spacing:0px;word-spacing:0px;text-anchor:end;fill:#000000;fill-opacity:1;stroke:none;stroke-width:1px;stroke-linecap:butt;stroke-linejoin:miter;stroke-opacity:1;opacity:1"
       transform="matrix(-1,0,0,-1,1905.6927,1034.7675)">
      <path
         id="path4463"
         d="m 1537.5813,268.67715 0,-3.65958 -7.4432,0 0,-3.05172 7.8898,-11.54941 2.9277,0 0,11.537 2.2578,0 0,3.06413 -2.2578,0 0,3.65958 -3.3743,0 z m 0,-6.72371 0,-6.21509 -4.1806,6.21509 4.1806,0 z"
         inkscape:connector-curvature="0"
         style="" />
    </g>
    <path
       sodipodi:nodetypes="cccsssssssscccccccccccccc"
       inkscape:connector-curvature="0"
       id="path4465"
       d="m 1518.2279,687.10836 c 18.3765,-0.0722 36.63,-3.00311 54.1054,-8.6875 l 0,-75.31836 -173.8535,0 c -7.7232,0 -13.9414,-6.21615 -13.9414,-13.93946 l 0,-113.85156 c 0,-7.7233 6.2182,-13.93945 13.9414,-13.93945 l 237.8672,0 c 7.7233,0 13.9395,6.21615 13.9395,13.93945 l 0,113.85156 c 0,7.7233 -8.2853,8.67836 -13.9395,13.93946 l -21.4941,0 0,55.27539 c 48.5707,-31.69162 78.555,-85.14921 80.2754,-143.11914 l -31.6231,0 0,-10.63086 21.2578,0 10.4434,0 c -2.8714,-95.69199 -81.2435,-171.79366 -176.9785,-171.85156 -95.704,0.10113 -174.028,76.1906 -176.8985,171.85156 l 10.3633,0 21.2617,0 0,10.63086 -31.7031,0 c 2.8724,95.69048 81.243,171.7907 176.9766,171.84961 z"
       style="color:#000000;display:inline;overflow:visible;visibility:visible;opacity:1;fill:none;fill-opacity:1;fill-rule:nonzero;stroke:#000000;stroke-width:0.106;stroke-linecap:square;stroke-linejoin:round;stroke-miterlimit:5.5999999;stroke-dasharray:none;stroke-dashoffset:0;stroke-opacity:1;marker:none;enable-background:accumulate" />
    <g
       id="g4467"
       style="font-style:normal;font-variant:normal;font-weight:bold;font-stretch:normal;font-size:25.40620995px;line-height:125%;font-family:Arial;-inkscape-font-specification:'Arial Bold';text-align:end;letter-spacing:0px;word-spacing:0px;text-anchor:end;fill:#000000;fill-opacity:1;stroke:none;stroke-width:1px;stroke-linecap:butt;stroke-linejoin:miter;stroke-opacity:1;opacity:1"
       transform="matrix(-1,0,0,-1,1905.6927,1034.7675)">
      <path
         id="path4469"
         d="m 246.02942,605.84405 3.47351,-0.35976 q 0.14886,1.17851 0.88078,1.87321 0.73192,0.6823 1.68713,0.6823 1.09168,0 1.8484,-0.88078 0.75673,-0.89319 0.75673,-2.67956 0,-1.67473 -0.75673,-2.50589 -0.74432,-0.84357 -1.94764,-0.84357 -1.50105,0 -2.69197,1.32738 l -2.82842,-0.40938 1.78637,-9.4653 9.2172,0 0,3.26261 -6.57485,0 -0.54584,3.08894 q 1.1661,-0.58305 2.38183,-0.58305 2.31981,0 3.93251,1.68713 1.61269,1.68713 1.61269,4.3791 0,2.24537 -1.30256,4.00694 -1.77397,2.40664 -4.92493,2.40664 -2.5183,0 -4.10618,-1.35219 -1.58789,-1.35218 -1.89803,-3.63477 z"
         inkscape:connector-curvature="0"
         style="" />
    </g>
    <path
       style="color:#000000;display:inline;overflow:visible;visibility:visible;opacity:1;fill:none;fill-opacity:1;fill-rule:nonzero;stroke:#000000;stroke-width:0.106;stroke-linecap:square;stroke-linejoin:round;stroke-miterlimit:5.5999999;stroke-dasharray:none;stroke-dashoffset:0;stroke-opacity:1;marker:none;enable-background:accumulate"
       d="m 1708.2305,1019.9899 c 95.7033,-0.1011 174.027,-76.18943 176.8985,-171.84962 l -31.625,0 0,-10.63086 31.7031,0 c -2.8724,-95.69047 -81.243,-171.79069 -176.9766,-171.84961 -95.7343,0.0579 -174.106,76.15838 -176.9785,171.84961 l 31.7008,0 0,10.63086 -31.6227,0 c 2.8715,95.66095 81.1964,171.74952 176.9004,171.84962 z m 119.3223,-85.77735 c -5.8707,-5.6e-4 -10.6294,-4.76014 -10.6289,-10.63086 5e-4,-5.86995 4.7589,-10.62835 10.6289,-10.62891 5.8707,-5.2e-4 10.6303,4.75819 10.6309,10.62891 5e-4,5.87148 -4.7594,10.63138 -10.6309,10.63086 z m -240.2793,0 c -5.8707,-5.6e-4 -10.6294,-4.76015 -10.6289,-10.63086 6e-4,-5.86995 4.759,-10.62835 10.6289,-10.62891 5.8707,-5.2e-4 10.6303,4.75819 10.6309,10.62891 5e-4,5.87148 -4.7594,10.63138 -10.6309,10.63086 z m 240.2793,-116.92774 c -5.8707,-5.6e-4 -10.6294,-4.76014 -10.6289,-10.63086 5e-4,-5.86995 4.7589,-10.62834 10.6289,-10.6289 5.8707,-5.2e-4 10.6303,4.75819 10.6309,10.6289 5e-4,5.87148 -4.7594,10.63138 -10.6309,10.63086 z m -240.2793,0 c -5.8707,-5.6e-4 -10.6294,-4.76015 -10.6289,-10.63086 6e-4,-5.86995 4.759,-10.62834 10.6289,-10.6289 5.8707,-5.2e-4 10.6303,4.75819 10.6309,10.6289 5e-4,5.87148 -4.7594,10.63138 -10.6309,10.63086 z"
       id="path4471"
       inkscape:connector-curvature="0"
       sodipodi:nodetypes="cccccccccccssssssssssssssssssss" />
    <g
       id="g4473"
       style="font-style:normal;font-variant:normal;font-weight:bold;font-stretch:normal;font-size:25.40620995px;line-height:125%;font-family:Arial;-inkscape-font-specification:'Arial Bold';text-align:end;letter-spacing:0px;word-spacing:0px;text-anchor:end;fill:#000000;fill-opacity:1;stroke:none;stroke-width:1px;stroke-linecap:butt;stroke-linejoin:miter;stroke-opacity:1;opacity:1"
       transform="matrix(-1,0,0,-1,1905.6927,1034.7675)">
      <path
         id="path4475"
         d="m 55.035351,250.10629 q 2.642345,0 4.13099,1.88562 1.773969,2.23297 1.773969,7.40601 0,5.16063 -1.786375,7.41841 -1.476239,1.86081 -4.118584,1.86081 -2.654751,0 -4.279855,-2.03448 -1.625104,-2.04689 -1.625104,-7.28196 0,-5.13582 1.786374,-7.3936 1.47624,-1.86081 4.118585,-1.86081 z m 0,2.89045 q -0.632675,0 -1.12889,0.40938 -0.496215,0.39697 -0.769133,1.43902 -0.359756,1.35219 -0.359756,4.55278 0,3.20058 0.32254,4.40391 0.32254,1.19091 0.806349,1.58788 0.496215,0.39698 1.12889,0.39698 0.632674,0 1.128889,-0.39698 0.496215,-0.40937 0.769133,-1.45142 0.359756,-1.33979 0.359756,-4.54037 0,-3.20059 -0.32254,-4.39151 -0.322539,-1.20332 -0.818755,-1.60029 -0.483809,-0.40938 -1.116483,-0.40938 z"
         inkscape:connector-curvature="0"
         style="" />
    </g>
    <path
       style="color:#000000;display:inline;overflow:visible;visibility:visible;opacity:1;fill:none;fill-opacity:1;fill-rule:nonzero;stroke:#000000;stroke-width:0.106;stroke-linecap:square;stroke-linejoin:round;stroke-miterlimit:5.5999999;stroke-dasharray:none;stroke-dashoffset:0;stroke-opacity:1;marker:none;enable-background:accumulate"
       d="m 1017.9642,487.50883 0,-9.3164 c 0,-7.7232 6.2181,-13.9395 13.9414,-13.9395 l 237.8672,0 c 7.7232,0 13.9394,6.2163 13.9394,13.9395 l 0,9.3164 0,10.6308 0,93.9043 c 0,7.7232 -6.2162,13.9395 -13.9394,13.9395 l -237.8672,0 c -7.7233,0 -13.9414,-6.2163 -13.9414,-13.9395 l 0,-93.9043 z m -12.9139,30.6308 -30.37318,0 c 2.8724,95.6912 81.24418,171.7917 176.97848,171.8496 95.7032,-0.1011 174.0269,-76.1894 176.8984,-171.8496 l -31.9285,0 0,-10.6308 32.0067,0 c -2.8724,-95.6905 -81.243,-171.7907 -176.9766,-171.8496 -95.704,0.1 -174.02888,76.1887 -176.90038,171.8496 l 30.29508,0 z"
       id="path4540"
       inkscape:connector-curvature="0"
       sodipodi:nodetypes="cssssccssssccccccccccccc" />
    <path
       sodipodi:nodetypes="ccccc"
       style="color:#000000;display:inline;overflow:visible;visibility:visible;opacity:1;fill:none;fill-opacity:1;fill-rule:nonzero;stroke:#000000;stroke-width:0.10600002;stroke-linecap:square;stroke-linejoin:round;stroke-miterlimit:5.5999999;stroke-dasharray:none;stroke-dashoffset:0;stroke-opacity:1;marker:none;enable-background:accumulate"
       d="m 1187.0594,583.51153 0,-99.1066 -31.8909,0 0,99.1066 z"
       id="path4542"
       inkscape:connector-curvature="0" />
    <path
       inkscape:connector-curvature="0"
       id="path4544"
       d="m 1127.0594,583.51153 0,-99.1066 -31.8909,0 0,99.1066 z"
       style="color:#000000;display:inline;overflow:visible;visibility:visible;opacity:1;fill:none;fill-opacity:1;fill-rule:nonzero;stroke:#000000;stroke-width:0.10600002;stroke-linecap:square;stroke-linejoin:round;stroke-miterlimit:5.5999999;stroke-dasharray:none;stroke-dashoffset:0;stroke-opacity:1;marker:none;enable-background:accumulate"
       sodipodi:nodetypes="ccccc" />
    <g
       transform="translate(358.7245,248.39036)"
       id="g4546"
       style="opacity:1;fill:#000000;fill-opacity:1">
      <path
         inkscape:connector-curvature="0"
         d="m 758.11056,386.27548 c -1.46714,0 -1.98247,-1.43941 -1.98247,-2.66173 0,-1.22256 0.51533,-2.66193 1.98247,-2.66193 1.46693,0 1.98286,1.43937 1.98286,2.66193 0,1.22232 -0.51593,2.66173 -1.98286,2.66173 z m -0.1088,2.85221 c -1.28999,0 -1.81957,-0.84221 -2.36326,-0.84221 -0.37922,0 -0.50168,0.31238 -0.50168,0.55695 0,0.61092 1.53417,1.31731 2.77033,1.31731 1.95516,0 3.25856,-1.3036 3.25856,-3.4498 l 0,-6.20628 c 0,-0.42099 -0.32507,-0.58389 -0.55638,-0.58389 -0.32662,0 -0.63842,0.1629 -0.63842,0.58389 l 0,0.32624 -0.027,0 c -0.31239,-0.43485 -1.0596,-0.91013 -1.83342,-0.91013 -2.03716,0 -3.17786,1.77888 -3.17786,3.69398 0,1.91505 1.1407,3.69378 3.17786,3.69378 0.81499,0 1.46693,-0.40732 1.83342,-1.03205 l 0.027,0 0,0.62473 c 0,1.03209 -0.44777,2.22748 -1.96915,2.22748 m -7.4442,-2.85221 c -1.46654,0 -1.98252,-1.43941 -1.98252,-2.66173 0,-1.22256 0.51598,-2.66193 1.98252,-2.66193 1.46694,0 1.98247,1.43937 1.98247,2.66193 0,1.22232 -0.51553,2.66173 -1.98247,2.66173 z m -0.10883,2.85221 c -1.29067,0 -1.81953,-0.84221 -2.36264,-0.84221 -0.38073,0 -0.50344,0.31238 -0.50344,0.55695 0,0.61092 1.5353,1.31731 2.77073,1.31731 1.95632,0 3.25992,-1.3036 3.25992,-3.4498 l 0,-6.20628 c 0,-0.42099 -0.32624,-0.58389 -0.55787,-0.58389 -0.32454,0 -0.63693,0.1629 -0.63693,0.58389 l 0,0.32624 -0.0276,0 c -0.31238,-0.43485 -1.05961,-0.91013 -1.83343,-0.91013 -2.03681,0 -3.17786,1.77888 -3.17786,3.69398 0,1.91505 1.14105,3.69378 3.17786,3.69378 0.81465,0 1.46694,-0.40732 1.83343,-1.03205 l 0.0276,0 0,0.62473 c 0,1.03209 -0.44908,2.22748 -1.96977,2.22748 m -4.93244,-1.82016 c 0.36649,0 0.59773,-0.24398 0.59773,-0.63804 l 0,-4.00675 c 0,-2.03658 -1.39912,-2.74297 -2.51283,-2.74297 -1.04595,0 -1.684,0.46144 -2.21358,1.22252 -0.5433,-0.92442 -1.27608,-1.22252 -1.98363,-1.22252 -1.0862,0 -1.53413,0.51554 -1.81919,0.88301 l -0.0273,-0.0276 0,-0.2174 c 0,-0.39405 -0.23072,-0.63804 -0.59721,-0.63804 -0.36649,0 -0.59778,0.24399 -0.59778,0.63804 l 0,6.11167 c 0,0.39406 0.2313,0.63805 0.59778,0.63805 0.36649,0 0.59721,-0.24399 0.59721,-0.63805 l 0,-4.04699 c 0,-1.03263 0.57042,-1.67067 1.53411,-1.67067 0.97853,0 1.54881,0.63804 1.54881,1.67067 l 0,4.04699 c 0,0.39406 0.23072,0.63805 0.59813,0.63805 0.36653,0 0.59725,-0.24399 0.59725,-0.63805 l 0,-4.04699 c 0,-1.03263 0.57062,-1.67067 1.53411,-1.67067 0.97854,0 1.54881,0.63804 1.54881,1.67067 l 0,4.04699 c 0,0.39406 0.2311,0.63805 0.59759,0.63805 m -13.67517,20.33927 c -0.28086,0 -0.53645,-0.16104 -0.65779,-0.41454 -0.12097,-0.25294 -0.0864,-0.55335 0.0899,-0.77191 l 6.25356,-7.76948 c 0.13845,-0.17185 0.34732,-0.27192 0.56817,-0.27192 l 26.86417,0 0,-23.34927 -32.38875,0 0,19.69438 26.16217,0 c 0.23659,-0.36231 0.64372,-0.60253 1.10801,-0.60253 0.73182,0 1.32527,0.59341 1.32527,1.32546 0,0.73108 -0.59345,1.32508 -1.32527,1.32508 -0.45919,0 -0.86343,-0.2345 -1.101,-0.58963 l -26.89835,0 c -0.40277,0 -0.7292,-0.32681 -0.7292,-0.72919 l 0,-21.15276 c 0,-0.40275 0.32643,-0.72919 0.7292,-0.72919 l 33.84712,0 c 0.40275,0 0.72919,0.32644 0.72919,0.72919 l 0,24.80763 c 0,0.40257 -0.32644,0.7292 -0.72919,0.7292 l -27.24436,0 -5.07983,6.31109 30.53178,0 -2.88903,-2.81668 -17.93636,0 c -0.23698,0.35891 -0.64283,0.59684 -1.1048,0.59684 -0.73244,0 -1.32527,-0.59379 -1.32527,-1.32546 0,-0.73206 0.59283,-1.32508 1.32527,-1.32508 0.46163,0 0.86724,0.237 1.10423,0.59533 l 18.23354,0 c 0.19032,0 0.37294,0.0747 0.50929,0.20697 l 4.38464,4.27507 c 0.21214,0.20698 0.27781,0.52221 0.16634,0.79698 -0.11185,0.27497 -0.37886,0.45442 -0.67544,0.45442 l -33.84712,0 z"
         style="fill:#000000;fill-opacity:1;fill-rule:nonzero;stroke:none"
         id="path4548" />
      <path
         inkscape:connector-curvature="0"
         id="path4550"
         d="m 834.3256,410.10183 c -3.59312,-0.18121 -6.93246,-1.286 -9.93609,-3.28725 -0.39445,-0.2628 -1.15646,-0.83088 -1.5263,-1.13783 -2.15165,-1.78592 -3.84961,-3.92685 -5.07281,-6.39636 -1.19034,-2.40315 -1.84611,-4.91499 -1.99445,-7.63943 -0.0306,-0.56206 -0.013,-2.02196 0.0304,-2.52962 0.18884,-2.2048 0.66183,-4.14179 1.48839,-6.0951 0.30074,-0.71071 0.81087,-1.73609 0.85784,-1.72429 0.013,0.005 0.38898,0.24701 0.83548,0.54167 l 0.81181,0.53573 0.005,8.56812 0.005,8.56808 0.48518,0.2777 c 3.38412,1.93694 4.27932,2.44816 4.28691,2.44816 0.005,0 0.009,-0.77786 0.009,-1.72864 l 0,-1.72858 -0.123,-0.14642 c -0.72801,-0.86658 -1.36636,-2.00391 -1.7478,-3.1139 -0.64946,-1.89003 -0.61886,-3.77665 0.0827,-5.10477 0.19635,-0.37163 0.38775,-0.62476 0.69886,-0.92426 1.10047,-1.05944 2.78723,-1.18359 4.51573,-0.33245 2.75202,1.35513 4.86024,4.79128 4.86162,7.92397 9.1e-4,1.89415 -0.80623,3.39383 -2.13811,3.97298 l -0.1561,0.0679 -0.005,2.33239 -0.005,2.33237 1.9964,1.16375 1.99639,1.16379 0.006,0.37131 c 0.004,0.2042 2.4e-4,0.65558 -0.008,1.00303 l -0.0139,0.63175 -0.0634,-0.004 c -0.0349,-0.003 -0.118,-0.006 -0.18466,-0.01 z m 1.5016,-0.95012 c -0.004,-0.62367 0.001,-0.975 0.0146,-0.99009 0.0156,-0.0179 8.61934,-5.04937 14.10207,-8.24668 l 0.75963,-0.44298 0.0136,-1.84804 c 0.0146,-1.988 0.018,-4.10553 0.006,-4.10553 -0.0157,0 -2.67334,1.54071 -2.6959,1.56293 -0.0134,0.0132 -0.10312,0.25598 -0.19927,0.53951 -0.40947,1.20677 -0.59327,1.63599 -0.93263,2.17776 -0.79096,1.26279 -1.77379,2.23346 -2.92287,2.8868 -0.622,0.35366 -1.34344,0.60429 -1.9723,0.68511 -0.31212,0.0403 -0.81636,0.0408 -1.09485,0 -1.37414,-0.19455 -2.37105,-1.08444 -2.79644,-2.49621 -0.17016,-0.56471 -0.22439,-0.97624 -0.22505,-1.70821 -4.5e-4,-0.5296 0.0129,-0.73973 0.0717,-1.13211 0.24011,-1.59822 0.92575,-3.22676 1.915,-4.54857 0.38214,-0.51059 0.96297,-1.13325 1.38846,-1.48843 0.83083,-0.69361 1.65681,-1.14257 2.52254,-1.37112 0.43512,-0.11488 0.569,-0.13083 1.0961,-0.13083 0.54234,4e-5 0.70505,0.0232 1.11875,0.16135 0.36819,0.12275 0.5579,0.23619 0.96347,0.57641 0.36448,0.30572 0.51729,0.4231 0.55083,0.4231 0.01,0 0.47219,-0.23732 1.02737,-0.52741 0.55519,-0.29007 1.27094,-0.66394 1.59058,-0.83074 l 0.58112,-0.30333 0.005,-2.85344 0.005,-2.85349 0.83789,-0.46011 c 0.46083,-0.25306 0.84426,-0.45327 0.85209,-0.44491 0.0296,0.032 0.38592,0.73599 0.52421,1.03617 0.31604,0.68603 0.56836,1.3171 0.79216,1.98114 1.02983,3.05575 1.28404,6.25363 0.75128,9.45089 -0.40258,2.41612 -1.28031,4.78435 -2.5512,6.88351 -1.7521,2.89399 -4.24426,5.28973 -7.21544,6.93621 -1.94575,1.07822 -4.05016,1.81497 -6.22967,2.18094 -0.77647,0.13039 -1.4796,0.20424 -2.41218,0.25338 l -0.23695,0.0125 -0.005,-0.96673 z m -1.39041,-23.20711 c -0.0389,-0.005 -0.18447,-0.0165 -0.32345,-0.0287 -1.84096,-0.16127 -3.62914,-0.8317 -4.76824,-1.78779 -0.8659,-0.72675 -1.3371,-1.54561 -1.41757,-2.46348 -0.0196,-0.22426 -0.001,-0.95173 0.032,-1.25805 l 0.0134,-0.12325 -0.0885,-0.0503 c -0.0486,-0.0279 -0.21127,-0.12312 -0.36139,-0.21228 -2.01757,-1.19753 -2.46576,-1.46205 -2.47681,-1.46205 -0.01,0 -3.11846,1.89822 -4.40049,2.68732 -0.20242,0.12463 -0.24237,0.1423 -0.27807,0.12325 -0.0362,-0.0192 -1.63945,-1.02857 -1.6542,-1.04124 -0.004,-0.005 0.14044,-0.2243 0.3189,-0.49253 1.1077,-1.66495 2.40994,-3.10197 3.932,-4.33898 3.18905,-2.59175 7.12995,-4.10939 11.26022,-4.33625 0.46583,-0.0256 1.63735,-0.026 2.08224,0 2.99579,0.17036 5.82954,0.99179 8.44178,2.44689 2.80977,1.56517 5.21298,3.82817 6.93222,6.52779 0.19786,0.31075 0.2078,0.33136 0.17222,0.35737 -0.0208,0.0151 -0.40336,0.22791 -0.85017,0.47269 l -0.8124,0.44514 -0.85685,-0.49798 c -0.47127,-0.27385 -1.13432,-0.65934 -1.47345,-0.85657 -0.65054,-0.37839 -2.38382,-1.38594 -4.53845,-2.63819 -0.7116,-0.41359 -2.27176,-1.32063 -3.46702,-2.01565 -1.19525,-0.69499 -2.34605,-1.36386 -2.5573,-1.48638 -0.21125,-0.1225 -0.74759,-0.43415 -1.19184,-0.69255 -0.44426,-0.25845 -0.81876,-0.47411 -0.83224,-0.47927 -0.0135,-0.005 -0.83261,0.45161 -1.82031,1.01504 -0.98771,0.56343 -2.1255,1.2123 -2.52843,1.4419 -0.40293,0.2296 -0.73243,0.422 -0.73223,0.42757 2e-4,0.005 0.25255,0.1705 0.56076,0.36655 0.30822,0.19601 0.7196,0.45875 0.91417,0.58383 0.19458,0.12501 0.42239,0.27055 0.50625,0.32335 l 0.15248,0.096 0.25185,-0.0484 c 1.02052,-0.19582 1.76752,-0.27605 2.56655,-0.27574 3.09772,0 5.54651,1.31442 6.31566,3.38657 0.16441,0.44293 0.22354,0.79312 0.22274,1.31921 -4.6e-4,0.37007 -0.005,0.42474 -0.057,0.64534 -0.19699,0.84231 -0.70333,1.61532 -1.48631,2.26916 -1.12314,0.93785 -2.63049,1.51206 -4.31575,1.64399 -0.23548,0.0182 -1.21247,0.0237 -1.3869,0.007 z"
         style="fill:#000000;stroke:none;fill-opacity:1" />
      <path
         inkscape:connector-curvature="0"
         id="path4552"
         d="m 792.2567,409.8931 c 0.0435,-0.32282 -0.0312,-0.84165 -0.25882,-1.79829 -0.0994,-0.4176 -0.21066,-0.95198 -0.24732,-1.18748 l -0.0666,-0.42821 -0.4451,0.34426 c -1.55225,1.20058 -3.39193,2.09313 -5.651,2.74165 -0.30477,0.0875 -0.59707,0.17164 -0.64956,0.18698 -0.0886,0.0259 -0.09,0.0172 -0.0191,-0.12088 0.15933,-0.31077 0.39951,-1.17345 0.47982,-1.72348 0.0549,-0.37619 0.0784,-0.83595 0.0686,-1.34229 l -0.0149,-0.77014 -0.43334,0.28196 c -1.59006,1.03464 -3.64997,1.74909 -5.3181,1.84453 l -0.57036,0.0326 0.3936,-0.52886 c 1.262,-1.69574 2.27593,-4.00601 2.03311,-4.63257 -0.0355,-0.0915 -0.0946,-0.144 -0.16211,-0.144 -0.0585,0 -0.44196,0.1745 -0.85221,0.38781 -1.5242,0.79246 -3.15169,1.3 -4.56848,1.42469 l -0.41891,0.0369 0.41439,-0.44032 c 1.27916,-1.35923 2.2077,-2.84533 2.69622,-4.31527 0.65239,-1.96293 0.66255,-3.95021 0.0326,-6.37802 -0.32003,-1.23345 -0.26431,-1.12645 -0.73649,-1.41455 -2.87049,-1.75154 -4.49211,-4.74983 -4.35429,-8.05088 0.0716,-1.71512 0.64929,-3.40217 1.64824,-4.81351 0.45058,-0.63659 1.41753,-1.60355 2.05411,-2.05412 1.01638,-0.71939 2.19129,-1.22703 3.45234,-1.4916 0.57098,-0.11975 0.78924,-0.13855 1.65689,-0.14228 l 0.99929,-0.005 0.25745,-0.38237 c 1.23778,-1.83843 3.2884,-3.2142 5.47968,-3.67638 2.13922,-0.4512 4.40657,-0.10387 6.26418,0.95949 1.60599,0.91935 2.83235,2.23411 3.63735,3.89954 l 0.27125,0.56118 0.4451,-0.09 c 1.91324,-0.38665 3.94059,-0.1297 5.68309,0.72032 2.52326,1.23086 4.29116,3.5335 4.85285,6.32068 0.101,0.50105 0.11875,0.75417 0.11875,1.68903 0,1.21632 -0.0829,1.79817 -0.39348,2.76247 -0.21406,0.66462 -0.81492,1.84878 -1.24117,2.44609 -0.4421,0.6195 -1.31224,1.50086 -1.90457,1.92909 l -0.45111,0.32614 -0.0365,0.56195 c -0.3803,5.85606 -3.45146,10.24982 -10.00056,14.30736 -1.16785,0.72355 -3.1988,1.90219 -4.05551,2.35356 -0.12338,0.065 -0.12338,0.065 -0.0892,-0.18855 z m -0.70304,-7.95699 c 0.028,-0.028 -0.005,-0.24944 -0.0805,-0.54425 -0.15259,-0.59446 -0.15954,-0.84524 -0.0312,-1.12764 0.39187,-0.8627 1.63881,-0.74357 1.89118,0.18068 0.0282,0.10337 0.0761,0.28821 0.10637,0.41065 l 0.055,0.22261 0.1601,-0.11787 c 0.18265,-0.1345 0.5827,-0.6486 0.7312,-0.93968 0.27084,-0.53091 0.33595,-1.26911 0.13813,-1.56612 -0.25303,-0.3799 -0.66099,-0.4652 -2.22684,-0.46563 -1.26113,-3.7e-4 -1.87059,-0.055 -2.61128,-0.23404 -0.28233,-0.0683 -0.52837,-0.11475 -0.54675,-0.1035 -0.0184,0.0113 -0.0499,0.1667 -0.0701,0.34524 -0.0475,0.41994 -0.18914,0.69063 -0.45254,0.86493 -0.47651,0.31533 -1.11241,0.18486 -1.42036,-0.29144 -0.15114,-0.23378 -0.15504,-0.25566 -0.1269,-0.71246 0.016,-0.2592 0.0443,-0.55677 0.063,-0.66124 0.0337,-0.18866 0.0325,-0.19011 -0.16825,-0.21379 -0.71814,-0.0847 -1.08846,0.36426 -1.08895,1.32013 -3.9e-4,0.84257 0.33395,1.57007 1.04699,2.27782 0.50435,0.50063 1.06488,0.84899 1.77377,1.10235 0.761,0.272 1.18923,0.33799 2.06171,0.31774 0.41203,-0.01 0.77036,-0.0386 0.7963,-0.0645 z m 6.50722,-2.8307 c 0.85862,-0.52158 1.58877,-1.46767 2.09807,-2.71859 0.74746,-1.83586 1.08482,-4.27481 1.00615,-7.27396 -0.0204,-0.77761 -0.053,-1.54334 -0.0726,-1.70161 l -0.0355,-0.28778 -0.34036,-0.12225 c -2.11225,-0.7582 -4.78471,-1.1771 -6.7026,-1.05061 -1.80645,0.11912 -3.42127,0.69104 -4.41513,1.56365 l -0.1701,0.14936 -0.20492,-0.40124 c -0.84309,-1.65078 -2.77094,-2.05705 -5.48009,-1.15483 -0.67141,0.2236 -1.93057,0.76405 -1.93057,0.82863 0,0.0203 0.0344,0.15308 0.0764,0.2951 0.13919,0.4706 0.3889,1.81862 0.46981,2.53607 0.25885,2.29541 0.112,4.25175 -0.47042,6.26411 -0.0279,0.0965 0.047,0.0709 0.56129,-0.1917 1.89788,-0.96904 4.10127,-1.56911 5.76156,-1.56911 1.00805,0 1.62726,0.14503 2.26735,0.5311 l 0.35215,0.21238 0.26131,-0.14222 c 0.76669,-0.41729 1.66273,-0.38065 2.60068,0.10637 1.16862,0.60675 2.35622,1.81997 3.43837,3.51254 0.21198,0.33155 0.39998,0.6487 0.41779,0.7048 0.0464,0.14628 0.15297,0.12746 0.51136,-0.0902 z m -4.29785,-7.03686 c -0.91447,-0.45699 -1.05212,-1.70029 -0.263,-2.37575 0.69403,-0.59405 1.80334,-0.36703 2.21182,0.45267 0.27042,0.54268 0.14267,1.29015 -0.29062,1.70045 -0.44163,0.41818 -1.09208,0.50551 -1.65819,0.22263 z m -7.22002,-0.13524 c -0.53928,-0.19109 -0.92026,-0.7528 -0.92026,-1.35684 0,-0.5477 0.25421,-0.98101 0.74618,-1.27191 0.20575,-0.12163 0.2921,-0.13926 0.68074,-0.13871 0.51998,7.5e-4 0.75366,0.0974 1.06275,0.43951 0.2758,0.30528 0.3663,0.54549 0.36683,0.97369 3.7e-4,0.29235 -0.0272,0.42101 -0.13647,0.63559 -0.33396,0.65623 -1.10598,0.96451 -1.79977,0.71867 z m 5.38061,-9.77301 c 0.28651,-0.19309 0.39929,-0.4138 0.49718,-0.97307 l 0.0895,-0.51121 0.32095,-0.11512 c 0.65043,-0.23328 1.34888,-0.8201 1.62493,-1.36525 0.54148,-1.06934 0.32137,-2.22364 -0.59997,-3.14628 -0.54596,-0.54672 -1.1036,-0.85822 -1.943,-1.08536 -0.46488,-0.1258 -1.56791,-0.12362 -2.03585,0.004 -1.24224,0.3387 -2.13126,1.22931 -2.3131,2.31725 -0.13073,0.78203 0.18797,1.65545 0.84837,2.32509 l 0.36003,0.36506 -0.076,0.39732 c -0.0986,0.51547 -0.096,0.77525 0.01,0.99869 0.0894,0.18833 0.43362,0.46424 0.49506,0.39676 0.0194,-0.0211 0.0857,-0.27422 0.14755,-0.56223 0.11263,-0.52479 0.18796,-0.65455 0.37982,-0.65455 0.0515,0 0.12838,0.0532 0.17101,0.11825 0.0696,0.10625 0.0645,0.17591 -0.0511,0.68751 -0.0707,0.31309 -0.12866,0.58786 -0.12866,0.61063 0,0.0396 0.64794,0.20685 0.80114,0.20685 0.0556,0 0.0896,-0.15688 0.13948,-0.64146 0.0671,-0.65311 0.13253,-0.82473 0.31423,-0.82473 0.0476,0 0.13049,0.0321 0.18414,0.0714 0.0921,0.0674 0.094,0.10575 0.0332,0.69383 -0.0354,0.34237 -0.0764,0.66372 -0.0911,0.71412 -0.0235,0.0805 0.014,0.0916 0.30944,0.0916 0.26292,0 0.37462,-0.0259 0.51282,-0.119 z m -0.0206,-2.75917 c -0.58888,-0.18747 -0.87644,-0.86794 -0.59878,-1.41692 0.2661,-0.52612 0.89094,-0.7083 1.40203,-0.40879 0.6287,0.36844 0.64076,1.33485 0.0213,1.69793 -0.24164,0.14161 -0.60443,0.19783 -0.82447,0.12778 z m -2.59289,-0.37302 c -0.56975,-0.28944 -0.7102,-1.09182 -0.27741,-1.5849 0.32673,-0.37226 1.03847,-0.39227 1.43927,-0.0405 0.29536,0.25925 0.37826,0.79771 0.18445,1.19807 -0.22962,0.47434 -0.85995,0.67441 -1.34631,0.42732 z"
         style="fill:#000000;fill-opacity:1" />
    </g>
  </g>
  <style
     id="style5089"
     type="text/css">
	.st0{fill:none;stroke:#020203;stroke-miterlimit:10;}
</style>
</svg>
